<svg width="50" height="50" viewBox="0 0 50 50" fill="none" xmlns="http://www.w3.org/2000/svg">
<path d="M49.3412 24.7704C49.3412 20.8231 45.3116 17.9448 39.5555 16.1356C40.8712 10.2968 40.3778 5.36301 37.0061 3.38933C33.6344 1.41564 29.0291 3.47156 24.6706 7.50117C20.312 3.47156 15.7068 1.41564 12.3351 3.38933C8.96335 5.36301 8.46993 10.2972 9.78572 16.1356C4.02914 17.9448 0 20.8231 0 24.7704C0 28.7178 4.02961 31.5961 9.78572 33.4053C8.46993 39.2441 8.96335 44.1779 12.3351 46.1515C13.2397 46.645 14.2265 46.8917 15.2133 46.8917C18.0916 46.8917 21.4633 45.0002 24.6701 41.9575C27.8773 44.918 31.2491 46.8917 34.1269 46.8917C35.1137 46.8917 36.1006 46.645 37.0052 46.1515C40.3769 44.1779 40.8703 39.2437 39.5545 33.4053C45.3111 31.5961 49.3402 28.7178 49.3402 24.7704H49.3412ZM35.3609 6.26668C37.0056 7.25352 37.4168 10.6252 36.43 15.3127C34.6208 14.9015 32.6471 14.5726 30.6734 14.4081C29.5221 12.7634 28.2885 11.2831 26.9727 9.8851C30.5089 6.67786 33.7162 5.27984 35.3609 6.26668ZM34.703 28.7178C35.032 29.5402 35.2787 30.2803 35.5254 31.1027L33.0583 31.5961C33.305 31.1027 33.6339 30.6915 33.8806 30.1981C34.2096 29.6224 34.4563 29.129 34.703 28.7178ZM31.0846 28.4711C30.3445 29.7046 29.6043 30.9382 28.8642 32.0073C27.4662 32.0895 26.1504 32.1718 24.6701 32.1718C23.1898 32.1718 21.8741 32.0895 20.476 32.0073C19.7359 30.856 18.9958 29.7046 18.2556 28.4711C17.5155 27.2375 16.8576 26.004 16.282 24.7704C16.8576 23.5369 17.5155 22.3033 18.2556 21.0698C18.9958 19.8362 19.7359 18.6027 20.476 17.5336C21.7918 17.4514 23.1898 17.3691 24.6701 17.3691C26.1504 17.3691 27.4662 17.4514 28.8642 17.5336C29.6043 18.6849 30.3445 19.8362 31.0846 21.0698C31.8247 22.3033 32.4826 23.5369 33.0583 24.7704C32.4826 26.004 31.8247 27.2375 31.0846 28.4711ZM24.6701 37.3527C24.0945 36.777 23.601 36.1191 23.0254 35.4612H24.6701H26.3148C25.7392 36.1191 25.2458 36.6948 24.6701 37.3527ZM15.3773 30.1158C15.6241 30.6093 15.953 31.0204 16.1997 31.5139L13.7326 31.0204C13.9793 30.2803 14.226 29.4579 14.555 28.6356C14.8839 29.129 15.1306 29.6224 15.3773 30.1158ZM14.6372 20.8231C14.3083 20.0007 14.0616 19.2606 13.8148 18.4382L16.282 17.9448C16.0352 18.4382 15.7063 18.8494 15.4596 19.3428C15.1306 19.9185 14.8839 20.4119 14.6372 20.8231ZM24.6701 12.1882C25.2458 12.7639 25.7392 13.4218 26.3148 14.0796H24.6701H23.0254C23.601 13.4218 24.0945 12.8461 24.6701 12.1882ZM33.9629 19.425C33.7162 18.9316 33.3872 18.5204 33.1405 18.027L35.6076 18.5204C35.3609 19.2606 35.1142 20.0829 34.7852 20.9053C34.4563 20.4119 34.2096 19.9185 33.9629 19.425ZM13.9798 6.26715C14.3087 6.10267 14.7199 5.9382 15.2133 5.9382C17.0226 5.9382 19.5719 7.33623 22.368 9.88557C21.1344 11.2836 19.9008 12.7639 18.6673 14.4086C16.6936 14.6553 14.7199 14.902 12.9107 15.3132C11.9239 10.6257 12.3351 7.25399 13.9798 6.26715ZM3.289 24.7709C3.289 22.8795 6.08506 20.8235 10.6081 19.3433C11.1837 21.1525 11.8416 22.9617 12.664 24.7709C11.8416 26.5801 11.1837 28.3893 10.6081 30.1985C6.08506 28.7183 3.289 26.6624 3.289 24.7709ZM13.9798 43.2747C12.3351 42.2878 11.9239 38.9161 12.9107 34.2286C14.7199 34.6398 16.6936 34.9687 18.6673 35.1332C19.8186 36.778 21.0522 38.2582 22.368 39.6562C18.8318 42.8635 15.6245 44.2615 13.9798 43.2747ZM35.3614 43.2747C33.7166 44.2615 30.5094 42.8635 26.9732 39.6562C28.2068 38.2582 29.4403 36.778 30.6739 35.1332C32.6476 34.8865 34.6212 34.6398 36.4305 34.2286C37.4173 38.9161 37.0061 42.2878 35.3614 43.2747ZM38.7331 30.1995C38.1574 28.3903 37.4995 26.5811 36.6772 24.7719C37.4995 22.9626 38.1574 21.1534 38.7331 19.3442C43.2561 20.8245 46.0522 22.8804 46.0522 24.7719C46.0522 26.6633 43.2561 28.7192 38.7331 30.1995Z" fill="#907F53"/>
<path d="M29.6067 24.7721C29.6067 27.4973 27.3977 29.7063 24.6725 29.7063C21.9473 29.7063 19.7383 27.4973 19.7383 24.7721C19.7383 22.0469 21.9473 19.8379 24.6725 19.8379C27.3977 19.8379 29.6067 22.0469 29.6067 24.7721Z" fill="#907F53"/>
</svg>
