<svg width="50" height="50" viewBox="0 0 50 50" fill="none" xmlns="http://www.w3.org/2000/svg">
<g clip-path="url(#clip0_548_17173)">
<path d="M41.9026 17.0246C38.7351 17.0246 36.0089 18.9476 34.7397 21.5792H18.0597V12.6317H22.4506C23.6736 15.2632 26.4636 17.1313 29.7156 17.1313C34.0935 17.1313 37.6431 13.5082 37.6431 9.13167C37.6431 4.7525 34.0941 1.12958 29.7156 1.12958C26.5476 1.12958 23.8218 3.15808 22.5526 5.78958H18.0601V2.5285C18.0597 1.13154 16.9281 0 15.5321 0H2.69256C1.29656 0 0.164062 1.1315 0.164062 2.5285V47.4702C0.164062 48.8662 1.29556 49.9982 2.69206 49.9982H15.5321C16.9271 49.9982 18.0591 48.8662 18.0591 47.4692V44.7347H24.3974C25.6204 46.8401 28.4104 49.1805 31.6624 49.1805C36.0399 49.1805 39.5895 45.4264 39.5895 41.0501C39.5895 36.6709 36.041 32.9163 31.6624 32.9163C28.4944 32.9163 25.7686 35.2609 24.4995 37.3663H18.0586V28.4193H34.6374C35.8609 31.0513 38.6504 33.0238 41.902 33.0238C46.2799 33.0238 49.8291 29.4013 49.8291 25.0238C49.8292 20.6459 46.2802 17.023 41.9024 17.023L41.9026 17.0246Z" fill="#907F53"/>
</g>
<defs>
<clipPath id="clip0_548_17173">
<rect width="50" height="50" fill="white"/>
</clipPath>
</defs>
</svg>
