<svg width="56" height="48" viewBox="0 0 56 48" fill="none" xmlns="http://www.w3.org/2000/svg">
<path d="M32.2478 1.7253C29.4069 -0.695538 25.0378 1.32571 25.0378 5.05613V16.6878L7.45609 1.7253C4.61526 -0.692621 0.246094 1.32863 0.246094 5.05905V42.9553C0.246094 45.5161 2.30818 47.272 4.51901 47.3361H4.77276C5.70026 47.307 6.63943 46.9803 7.45609 46.2861L25.0378 31.3236V42.9524C25.0378 46.6828 29.4069 48.7011 32.2478 46.2832L53.8603 27.8907C54.4231 27.4115 54.8751 26.8158 55.1851 26.1448C55.4951 25.4738 55.6557 24.7434 55.6557 24.0043C55.6557 23.2651 55.4951 22.5347 55.1851 21.8637C54.8751 21.1927 54.4231 20.597 53.8603 20.1178L32.2478 1.7253Z" fill="#283642"/>
</svg>
