<svg width="204" height="6" viewBox="0 0 204 6" fill="none" xmlns="http://www.w3.org/2000/svg">
<path d="M0.333333 3C0.333333 4.47276 1.52724 5.66667 3 5.66667C4.47276 5.66667 5.66667 4.47276 5.66667 3C5.66667 1.52724 4.47276 0.333333 3 0.333333C1.52724 0.333333 0.333333 1.52724 0.333333 3ZM198.333 3C198.333 4.47276 199.527 5.66667 201 5.66667C202.473 5.66667 203.667 4.47276 203.667 3C203.667 1.52724 202.473 0.333333 201 0.333333C199.527 0.333333 198.333 1.52724 198.333 3ZM3 3.5H201V2.5H3V3.5Z" fill="#283642"/>
</svg>
