<svg width="71" height="70" viewBox="0 0 71 70" fill="none" xmlns="http://www.w3.org/2000/svg">
<path d="M47.9091 61.7478C42.7361 61.7803 37.6081 60.7854 32.8226 58.8208C28.0371 56.8562 23.6893 53.961 20.0313 50.303C16.3734 46.6451 13.4782 42.2973 11.5135 37.5118C9.54892 32.7263 8.55403 27.5983 8.58656 22.4253V20.8719C8.58656 20.7126 8.51043 20.563 8.38272 20.4677C6.24737 18.8741 4.3455 16.9933 2.73016 14.8803C2.42618 14.4826 2.85311 13.9518 3.32295 14.1243C4.62387 14.6021 5.95762 14.9842 7.31355 15.2679C7.84314 15.3787 8.14015 14.6242 7.729 14.2725C6.12975 12.9044 4.85648 11.189 4.01028 9.25253C3.82497 8.82847 4.29077 8.4434 4.69884 8.66167C6.99814 9.89154 9.46389 10.7856 12.0209 11.315C12.1895 11.3499 12.3633 11.293 12.4836 11.1698C14.5424 9.06213 17.222 7.66451 20.1338 7.18442C23.1367 6.68931 26.2191 7.19763 28.904 8.63074C31.5889 10.0639 33.7267 12.3419 34.9865 15.1123C36.155 17.6817 36.5079 20.5418 36.0068 23.3089C35.9477 23.6353 36.2026 23.9404 36.5336 23.9186C41.7978 23.571 46.9399 22.1634 51.6503 19.7778C56.3413 17.4021 60.5036 14.1073 63.8911 10.0922C64.1171 9.8242 64.5421 9.85882 64.7009 10.1714C66.1708 13.0643 66.5785 16.3909 65.8377 19.5659C65.1763 22.4003 63.6407 24.9379 61.4703 26.8325C61.0903 27.1642 61.3278 27.8094 61.8251 27.7252C63.303 27.475 64.7334 26.9831 66.0579 26.2659C66.1183 26.2331 66.1922 26.2766 66.1922 26.3453C66.2113 29.5175 65.1426 32.6005 63.1643 35.0804C61.6123 37.0258 59.574 38.5079 57.2722 39.3877C56.7837 39.5744 56.8023 40.2964 57.3218 40.3568C58.4129 40.4836 59.5166 40.4805 60.6096 40.3467C60.9871 40.3005 61.2964 40.6595 61.1549 41.0125C60.2036 43.3855 58.6099 45.4535 56.5452 46.9798C54.6217 48.4017 52.3685 49.295 50.0094 49.5831C49.5466 49.6397 49.3545 50.2395 49.7317 50.5136C54.4027 53.9076 60.0282 55.7651 65.8247 55.8066C66.1551 55.797 66.4853 55.782 66.8151 55.7615C67.3513 55.7281 67.597 56.4469 67.1277 56.7084C61.2649 59.9763 54.6469 61.6867 47.9091 61.6559" fill="#283642"/>
</svg>
