<svg width="71" height="70" viewBox="0 0 71 70" fill="none" xmlns="http://www.w3.org/2000/svg">
<g clip-path="url(#clip0_753_5826)">
<path d="M25.852 50.3749H32.021L34.8647 47.5532C35.1894 47.2255 35.4023 46.8036 35.4731 46.3481C35.5439 45.8925 35.4687 45.4262 35.2583 45.0156L22.3745 19.2468V41.6243H17.9995V19.2468L5.11575 45.0156C4.9053 45.4262 4.83011 45.8925 4.90091 46.3481C4.97171 46.8036 5.18459 47.2255 5.5093 47.5532L8.35305 50.3749H25.852Z" fill="#283642"/>
<path d="M7.0625 56.9375C7.0625 57.5176 7.29298 58.0742 7.70312 58.4844C8.11328 58.8945 8.66992 59.125 9.25 59.125H11.4375V67.875H28.9375V59.125H31.125C31.7051 59.125 32.2617 58.8945 32.6719 58.4844C33.082 58.0742 33.3125 57.5176 33.3125 56.9375V54.75H7.0625V56.9375Z" fill="#283642"/>
<path d="M13.625 4.4375C13.625 3.85742 13.3945 3.30078 12.9844 2.89062C12.5742 2.48048 12.0176 2.25 11.4375 2.25H2.6875C2.10742 2.25 1.55078 2.48048 1.14062 2.89062C0.730475 3.30078 0.5 3.85742 0.5 4.4375V13.1875C0.5 13.7676 0.730475 14.3242 1.14062 14.7344C1.55078 15.1445 2.10742 15.375 2.6875 15.375H11.4375C12.0176 15.375 12.5742 15.1445 12.9844 14.7344C13.3945 14.3242 13.625 13.7676 13.625 13.1875V4.4375Z" fill="#283642"/>
<path d="M18 6.625H24.5625V11H18V6.625Z" fill="#283642"/>
<path d="M68.3125 2.25H59.5625C58.9824 2.25 58.4258 2.48048 58.0156 2.89062C57.6055 3.30078 57.375 3.85742 57.375 4.4375V13.1875C57.375 13.7676 57.6055 14.3242 58.0156 14.7344C58.4258 15.1445 58.9824 15.375 59.5625 15.375H68.3125C68.8926 15.375 69.4492 15.1445 69.8594 14.7344C70.2695 14.3242 70.5 13.7676 70.5 13.1875V4.4375C70.5 3.85742 70.2695 3.30078 69.8594 2.89062C69.4492 2.48048 68.8926 2.25 68.3125 2.25Z" fill="#283642"/>
<path d="M42.0625 6.625V4.4375C42.0625 3.85742 41.832 3.30078 41.4219 2.89062C41.0117 2.48048 40.4551 2.25 39.875 2.25H31.125C30.5449 2.25 29.9883 2.48048 29.5781 2.89062C29.168 3.30078 28.9375 3.85742 28.9375 4.4375V13.1875C28.9375 13.7676 29.168 14.3242 29.5781 14.7344C29.9883 15.1445 30.5449 15.375 31.125 15.375H39.875C40.4551 15.375 41.0117 15.1445 41.4219 14.7344C41.832 14.3242 42.0625 13.7676 42.0625 13.1875V6.625Z" fill="#283642"/>
<path d="M59.5625 37.25H57.375C56.7949 37.25 56.2383 37.4805 55.8281 37.8906C55.418 38.3008 55.1875 38.8574 55.1875 39.4375V48.1875C55.1875 48.7676 55.418 49.3242 55.8281 49.7344C56.2383 50.1445 56.7949 50.375 57.375 50.375H66.125C66.7051 50.375 67.2617 50.1445 67.6719 49.7344C68.082 49.3242 68.3125 48.7676 68.3125 48.1875V39.4375C68.3125 38.8574 68.082 38.3008 67.6719 37.8906C67.2617 37.4805 66.7051 37.25 66.125 37.25H59.5625Z" fill="#283642"/>
<path d="M46.4375 6.625V13.1875C51.6221 15.7471 57.375 21.2159 59.1025 32.875H63.4775C62.0116 21.0845 56.5869 14.565 51.0741 11H52.9994V6.625H46.4375Z" fill="#283642"/>
</g>
<defs>
<clipPath id="clip0_753_5826">
<rect width="70" height="70" fill="white" transform="translate(0.5)"/>
</clipPath>
</defs>
</svg>
