<svg width="50" height="50" viewBox="0 0 50 50" fill="none" xmlns="http://www.w3.org/2000/svg">
<path d="M23.9994 2C16.8314 2 10.9994 10.2923 10.9994 20.4863C10.9994 25.7525 12.5643 30.4946 15.0599 33.8594C14.9659 34.3645 14.9842 34.8841 15.1136 35.3813C15.243 35.8785 15.4802 36.3412 15.8085 36.7364C16.1368 37.1316 16.5481 37.4497 17.0131 37.6681C17.4782 37.8865 17.9856 37.9998 18.4994 38C19.4276 38 20.3179 37.6312 20.9743 36.9749C21.6306 36.3185 21.9994 35.4283 21.9994 34.5C21.9994 33.5717 21.6306 32.6815 20.9743 32.0251C20.3179 31.3687 19.4276 31 18.4994 31C18.3089 31.0014 18.1188 31.0184 17.931 31.0508C16.143 28.3872 14.9994 24.6115 14.9994 20.4863C14.9994 12.6333 19.1214 6 23.9994 6C28.1184 6 31.6885 10.7375 32.7025 16.9375C34.1245 17.3455 35.5411 17.8975 36.9291 18.5645C36.2511 9.27045 30.7114 2 23.9994 2ZM22.4994 17C21.5711 17 20.6809 17.3687 20.0245 18.0251C19.3681 18.6815 18.9994 19.5717 18.9994 20.5C18.9994 21.4283 19.3681 22.3185 20.0245 22.9749C20.6809 23.6313 21.5711 24 22.4994 24C23.1537 23.9997 23.7947 23.8159 24.3499 23.4697C24.905 23.1234 25.3519 22.6285 25.64 22.041C28.8898 21.8375 32.6455 22.8401 36.1127 24.918C42.9727 29.031 46.7032 36.223 44.2572 40.623C43.4532 42.069 42.0048 43.109 40.0678 43.627C37.2788 44.373 33.8586 43.9937 30.4896 42.6387C29.4206 43.6327 28.2453 44.5658 26.9623 45.4238C30.2903 47.1048 33.8099 47.9961 37.0619 47.9961C38.4719 47.9961 39.8329 47.8302 41.1029 47.4902C44.1099 46.6852 46.4103 44.9824 47.7533 42.5664C51.3373 36.1174 47.1273 26.8583 38.1693 21.4883C33.9068 18.9319 29.1849 17.7538 25.0345 18.0938C24.7082 17.7491 24.3152 17.4744 23.8794 17.2863C23.4436 17.0983 22.974 17.0009 22.4994 17ZM9.15955 23.3242C2.07855 28.7952 -0.958561 36.7994 2.24744 42.5664C3.59044 44.9824 5.89083 46.6852 8.89783 47.4902C10.1688 47.8302 11.5268 47.9961 12.9388 47.9961C16.7388 47.9961 20.9094 46.7897 24.7064 44.5137C28.9543 41.967 32.0951 38.5437 33.8763 34.9629C35.6274 34.7721 36.9994 33.301 36.9994 31.5C36.9994 29.57 35.4294 28 33.4994 28C31.5694 28 29.9994 29.57 29.9994 31.5C29.9994 32.0402 30.1315 32.5466 30.351 33.0039C28.907 35.9787 26.2128 38.9454 22.6498 41.082C18.3538 43.658 13.599 44.61 9.93103 43.627C7.99503 43.109 6.54753 42.069 5.74353 40.623C3.80953 37.143 5.74569 31.9235 10.0287 27.8555C9.61769 26.4155 9.32355 24.8992 9.15955 23.3242Z" fill="#907F53"/>
</svg>
