<svg width="71" height="70" viewBox="0 0 71 70" fill="none" xmlns="http://www.w3.org/2000/svg">
<path d="M22.789 23.2057L25.7451 23.7272V23.7267C26.0918 25.0137 26.6058 26.2499 27.2731 27.4039L25.5523 29.8604C25.244 30.2977 25.1001 30.8297 25.1459 31.3626C25.1917 31.8955 25.4238 32.3951 25.8018 32.7735L27.5725 34.5442H27.573C27.951 34.9222 28.4511 35.1548 28.984 35.2006C29.5169 35.2465 30.0488 35.1025 30.4861 34.7942L32.9426 33.0734H32.9421C34.0961 33.7408 35.3323 34.2543 36.6193 34.6014L37.1408 37.5575C37.2329 38.0835 37.5079 38.5596 37.9163 38.9033C38.3252 39.2465 38.8417 39.4352 39.3756 39.4352H41.9102C42.4442 39.4352 42.9612 39.2465 43.3695 38.9033C43.7784 38.5596 44.0529 38.0835 44.1455 37.5575L44.667 34.6014H44.6665C45.951 34.2538 47.1847 33.7403 48.3367 33.0734L50.7932 34.7942H50.7927C51.23 35.1025 51.7619 35.2465 52.2948 35.2006C52.8283 35.1548 53.3278 34.9222 53.7058 34.5442L55.477 32.7735C55.855 32.395 56.0876 31.8955 56.1329 31.3626C56.1787 30.8296 56.0348 30.2977 55.727 29.8604L53.9772 27.4039C54.6347 26.2484 55.1387 25.0122 55.477 23.7267L58.433 23.2052V23.2057C58.959 23.1131 59.4351 22.8387 59.7788 22.4298C60.122 22.0214 60.3108 21.5044 60.3108 20.9705V18.4642C60.3108 17.9308 60.122 17.4138 59.7788 17.0055C59.4352 16.5966 58.959 16.3221 58.433 16.2295L55.477 15.7085C55.1298 14.4215 54.6163 13.1853 53.9489 12.0313L55.6697 9.57478C55.985 9.14395 56.1389 8.61601 56.1035 8.0831C56.0682 7.55017 55.8465 7.04713 55.477 6.66168L53.6775 4.89102C53.3 4.51149 52.8009 4.27791 52.2679 4.23109C51.735 4.18377 51.2026 4.32671 50.7643 4.63403L48.3367 6.35483C47.1827 5.68742 45.9465 5.17342 44.6595 4.82681L44.138 1.87075C44.0444 1.34728 43.7705 0.873623 43.363 0.531439C42.9561 0.189765 42.4421 0.00150455 41.9101 0H39.3685C38.8345 0 38.318 0.188771 37.9092 0.531936C37.5003 0.875599 37.2258 1.35175 37.1337 1.87775L36.6122 4.83381C35.3257 5.17847 34.0895 5.68998 32.935 6.35494L30.486 4.63414C30.0477 4.32683 29.5153 4.1839 28.9823 4.2312C28.4494 4.27802 27.9503 4.51161 27.5728 4.89114L25.8021 6.66179H25.8016C25.4236 7.04033 25.1915 7.53988 25.1457 8.07276C25.0998 8.60569 25.2438 9.13763 25.5521 9.57489L27.2729 12.0314C26.603 13.1849 26.087 14.4211 25.7374 15.7086L22.7813 16.2301V16.2296C22.2558 16.3222 21.7792 16.5967 21.4355 17.0056C21.0923 17.414 20.904 17.931 20.9035 18.4644V20.9706C20.904 21.5055 21.0938 22.023 21.4385 22.4319C21.7831 22.8408 22.2613 23.1148 22.7887 23.2059L22.789 23.2057ZM40.6397 11.2815V11.281C42.8745 11.287 45.0161 12.18 46.5935 13.7639C48.1704 15.3478 49.0545 17.4929 49.0505 19.7282C49.047 21.9635 48.156 24.1057 46.5731 25.6841C44.9908 27.2629 42.8461 28.1485 40.6107 28.1464C38.3755 28.1444 36.2327 27.2554 34.6528 25.674C33.0729 24.0927 32.1854 21.9489 32.1854 19.7137C32.1889 17.4774 33.0799 15.3336 34.6618 13.7528C36.2441 12.172 38.3883 11.2829 40.6251 11.2809L40.6397 11.2815ZM16.9914 69.9744L2.83203 56.1797L12.9712 46.1048H12.9717C15.0306 44.0592 17.6246 42.6353 20.4556 41.9948C23.2866 41.3548 26.2406 41.5246 28.9799 42.4849L31.2003 43.2629H44.9095C46.0745 43.2624 47.1897 43.736 47.9981 44.5753C48.8064 45.4145 49.2383 46.5472 49.1934 47.7117C49.1292 48.8547 48.6247 49.9291 47.7864 50.709C46.9477 51.489 45.8399 51.9143 44.695 51.8959H36.4983C35.5714 51.8959 34.8204 52.647 34.8204 53.5739C34.8204 54.5003 35.5714 55.2518 36.4983 55.2518H44.7239C46.7311 55.2528 48.6632 54.4858 50.1224 53.1072C51.5817 51.729 52.4578 49.8444 52.5709 47.8401V47.733L60.1823 39.1649C60.9568 38.2703 62.046 37.708 63.2239 37.595C64.4018 37.482 65.5783 37.8271 66.5087 38.5578C67.448 39.3293 68.0338 40.4489 68.1318 41.6602C68.2304 42.872 67.8325 44.0713 67.0296 44.9838L51.8349 62.3563C49.8113 64.6782 46.8821 66.0111 43.8021 66.0121H20.9533L16.9914 69.9744ZM36.1349 19.7147C36.1349 18.5238 36.6081 17.3812 37.4503 16.539C38.2925 15.6968 39.4345 15.2237 40.6259 15.2237C41.8168 15.2237 42.9594 15.6969 43.8015 16.539C44.6438 17.3813 45.1169 18.5238 45.1169 19.7147C45.1169 20.906 44.6437 22.0481 43.8015 22.8908C42.9593 23.733 41.8168 24.2061 40.6259 24.2061C39.4345 24.2061 38.2924 23.733 37.4503 22.8908C36.6081 22.0481 36.1349 20.9061 36.1349 19.7147Z" fill="#283642"/>
</svg>
