<?xml version="1.0" encoding="utf-8"?><svg viewBox="0 0 708 708" xmlns="http://www.w3.org/2000/svg" xmlns:xlink="http://www.w3.org/1999/xlink"><style>:root>svg{display:none}:root>svg:target{display:block}</style><svg fill="none" viewBox="0 0 50 50" id="app" xmlns="http://www.w3.org/2000/svg"><path d="M36.098 1.25H14.474A4.474 4.474 0 0010 5.724v39.537a4.474 4.474 0 004.474 4.474h21.624a4.474 4.474 0 004.472-4.474V5.724a4.474 4.474 0 00-4.472-4.474zM25.285 47.868a2.42 2.42 0 01-2.422-2.421 2.422 2.422 0 114.845 0 2.42 2.42 0 01-2.423 2.42zm12.117-9.32a2.238 2.238 0 01-2.238 2.238H15.405a2.238 2.238 0 01-2.237-2.237V6.859a2.237 2.237 0 012.237-2.236h19.76c1.234 0 2.237 1 2.237 2.236v31.69z" fill="#907F53"/><path d="M21.302 9.098h-2.333a2.333 2.333 0 00-2.332 2.332v2.335a2.333 2.333 0 002.332 2.331h2.333a2.331 2.331 0 002.333-2.332V11.43a2.331 2.331 0 00-2.333-2.332zm10.301 0h-2.334a2.333 2.333 0 00-2.331 2.332v2.335a2.333 2.333 0 002.331 2.331h2.334a2.33 2.33 0 002.332-2.332V11.43a2.33 2.33 0 00-2.332-2.332zM21.302 19.207h-2.333a2.333 2.333 0 00-2.332 2.332v2.334a2.334 2.334 0 002.332 2.332h2.333a2.332 2.332 0 002.333-2.331v-2.335a2.331 2.331 0 00-2.333-2.332zm10.301 0h-2.334a2.333 2.333 0 00-2.331 2.332v2.334a2.334 2.334 0 002.331 2.332h2.334a2.332 2.332 0 002.332-2.331v-2.335a2.33 2.33 0 00-2.332-2.332zM21.302 29.316h-2.333a2.333 2.333 0 00-2.332 2.332v2.332a2.333 2.333 0 002.332 2.335h2.333a2.332 2.332 0 002.333-2.335v-2.332a2.332 2.332 0 00-2.333-2.332zm10.301 0h-2.334a2.333 2.333 0 00-2.331 2.332v2.332a2.333 2.333 0 002.331 2.335h2.334a2.331 2.331 0 002.332-2.335v-2.332a2.332 2.332 0 00-2.332-2.332z" fill="#907F53"/></svg><svg viewBox="0 0 20 33" id="arrow" xmlns="http://www.w3.org/2000/svg"><path d="M.65 2.686a2 2 0 00.383 2.345l10.294 10.037a2 2 0 010 2.864L1.033 27.969a2 2 0 00-.384 2.345l.654 1.276a2 2 0 003.176.519l14.54-14.177a2 2 0 000-2.864L4.48.891a2 2 0 00-3.176.52L.65 2.686z"/></svg><svg fill="none" viewBox="0 0 10 6" id="arrow-down" xmlns="http://www.w3.org/2000/svg"><path d="M.957.451a.747.747 0 01.847.137l2.499 2.429a1 1 0 001.394 0L8.196.587a.747.747 0 011.04 1.072L5.698 5.1a1 1 0 01-1.394 0L.763 1.66A.747.747 0 01.957.45z" fill="#283642"/></svg><svg fill="none" viewBox="0 0 35 35" id="arrow-left" xmlns="http://www.w3.org/2000/svg"><path d="M27.327 3.686a2 2 0 01-.383 2.345L16.649 16.068a2 2 0 000 2.864l10.295 10.037a2 2 0 01.383 2.345l-.654 1.276a2 2 0 01-3.176.519L8.957 18.932a2 2 0 010-2.864l14.54-14.177a2 2 0 013.176.52l.654 1.275z" fill="#BABABA"/></svg><svg fill="none" viewBox="0 0 32 8" id="arrow-long" xmlns="http://www.w3.org/2000/svg"><path d="M31.354 4.354a.5.5 0 000-.708L28.172.464a.5.5 0 10-.707.708L30.293 4l-2.828 2.828a.5.5 0 10.707.708l3.182-3.182zM0 4.5h31v-1H0v1z" fill="#F15A25"/></svg><svg fill="none" viewBox="0 0 35 35" id="arrow-right" xmlns="http://www.w3.org/2000/svg"><path d="M8.65 3.686a2 2 0 00.383 2.345l10.294 10.037a2 2 0 010 2.864L9.033 28.969a2 2 0 00-.384 2.345l.654 1.276a2 2 0 003.176.519l14.54-14.177a2 2 0 000-2.864L12.48 1.891a2 2 0 00-3.176.52L8.65 3.686z" fill="#283642"/></svg><svg fill="none" viewBox="0 0 50 50" id="atom" xmlns="http://www.w3.org/2000/svg"><path d="M49.341 24.77c0-3.947-4.03-6.825-9.785-8.634 1.315-5.84.822-10.773-2.55-12.747-3.372-1.973-7.977.083-12.335 4.112-4.359-4.03-8.964-6.085-12.336-4.112-3.372 1.974-3.865 6.908-2.55 12.747C4.03 17.945 0 20.823 0 24.77c0 3.948 4.03 6.826 9.786 8.635-1.316 5.84-.823 10.773 2.55 12.746a6 6 0 002.877.74c2.879 0 6.25-1.89 9.457-4.933 3.207 2.96 6.58 4.934 9.457 4.934a6 6 0 002.878-.74c3.372-1.974 3.865-6.908 2.55-12.747 5.756-1.809 9.785-4.687 9.785-8.635h.001zM35.361 6.267c1.645.987 2.056 4.358 1.069 9.046a42.08 42.08 0 00-5.757-.905 40.2 40.2 0 00-3.7-4.523c3.536-3.207 6.743-4.605 8.388-3.618zm-.658 22.45c.329.823.576 1.563.822 2.386l-2.467.493c.247-.493.576-.904.823-1.398.329-.576.575-1.069.822-1.48zm-3.618-.246c-.74 1.234-1.48 2.467-2.22 3.536-1.399.083-2.715.165-4.195.165-1.48 0-2.796-.082-4.194-.165a133.2 133.2 0 01-2.22-3.536 40.415 40.415 0 01-1.974-3.7 40.414 40.414 0 011.974-3.701c.74-1.234 1.48-2.467 2.22-3.536 1.316-.083 2.714-.165 4.194-.165s2.796.082 4.194.165c.74 1.15 1.48 2.302 2.22 3.536a40.44 40.44 0 011.974 3.7 40.441 40.441 0 01-1.973 3.701zm-6.415 8.882c-.576-.576-1.069-1.234-1.645-1.892h3.29c-.576.658-1.07 1.234-1.645 1.892zm-9.293-7.237c.247.493.576.904.823 1.398l-2.467-.494c.246-.74.493-1.562.822-2.384.329.493.576.986.822 1.48zm-.74-9.293a27.345 27.345 0 01-.822-2.385l2.467-.493c-.247.493-.576.904-.822 1.398-.33.576-.576 1.069-.823 1.48zm10.033-8.635c.576.576 1.07 1.234 1.645 1.892h-3.29c.576-.658 1.07-1.234 1.645-1.892zm9.293 7.237c-.247-.493-.576-.905-.822-1.398l2.467.493c-.247.74-.494 1.563-.823 2.385-.329-.493-.575-.986-.822-1.48zM13.98 6.267c.329-.164.74-.329 1.233-.329 1.81 0 4.359 1.398 7.155 3.948a72.832 72.832 0 00-3.7 4.523c-1.974.246-3.948.493-5.757.904-.987-4.687-.576-8.059 1.069-9.046zM3.289 24.771c0-1.892 2.796-3.948 7.32-5.428.575 1.81 1.233 3.619 2.055 5.428-.822 1.81-1.48 3.618-2.056 5.427-4.523-1.48-7.319-3.536-7.319-5.427zm10.69 18.504c-1.644-.987-2.055-4.359-1.068-9.046 1.809.41 3.783.74 5.756.904a40.19 40.19 0 003.701 4.523c-3.536 3.208-6.743 4.605-8.388 3.619zm21.382 0c-1.644.986-4.852-.411-8.388-3.619a72.829 72.829 0 003.7-4.523c1.975-.247 3.948-.493 5.758-.904.986 4.687.575 8.059-1.07 9.046zM38.733 30.2c-.576-1.81-1.233-3.619-2.056-5.428.822-1.81 1.48-3.619 2.056-5.428 4.523 1.48 7.32 3.536 7.32 5.428 0 1.891-2.797 3.947-7.32 5.428z" fill="#907F53"/><path d="M29.607 24.772a4.934 4.934 0 11-9.868 0 4.934 4.934 0 019.868 0z" fill="#907F53"/></svg><svg fill="none" viewBox="0 0 20 20" id="behance" xmlns="http://www.w3.org/2000/svg"><g clip-path="url(#aha)"><path d="M18.333 5.833H12.5V4.166h5.833v1.667zm1.439 8.333c-.369 1.08-1.691 2.5-4.251 2.5-2.562 0-4.637-1.44-4.637-4.73 0-3.257 1.938-4.932 4.555-4.932 2.569 0 4.137 1.485 4.48 3.688.064.421.09.99.078 1.783h-6.689c.109 2.676 2.903 2.76 3.824 1.691h2.64zm-6.405-3.333h4.137c-.087-1.29-.947-1.85-2.064-1.85-1.222 0-1.897.64-2.073 1.85zm-7.979 5.823H0V4.184h5.794c4.564.067 4.65 4.536 2.267 5.755 2.884 1.05 2.98 6.717-2.673 6.717zM2.5 9.166h2.987c2.09 0 2.421-2.5-.26-2.5H2.5v2.5zm2.826 2.5H2.5v2.513h2.784c2.546 0 2.39-2.513.042-2.513z" fill="#fff"/></g><defs><clipPath id="aha"><path fill="#fff" d="M0 0h20v20H0z"/></clipPath></defs></svg><svg fill="none" viewBox="0 0 25 25" id="calendar" xmlns="http://www.w3.org/2000/svg"><path d="M3 21.25c0 .432.35.781.781.781H21.75a.78.78 0 00.781-.781V10.996H3V21.25zM21.75 4.258h-4.102V2.695a.196.196 0 00-.195-.195h-1.367a.196.196 0 00-.195.195v1.563H9.64V2.695a.196.196 0 00-.196-.195H8.078a.196.196 0 00-.195.195v1.563H3.78a.78.78 0 00-.78.781v4.297h19.531V5.039a.78.78 0 00-.781-.781z" fill="#283642"/></svg><svg viewBox="0 0 24 24" id="chats" xmlns="http://www.w3.org/2000/svg"><path d="M12.816 16.096c-.24.144-.528.24-.816.24-.288 0-.576-.096-.816-.24L0 8.204v11.002c0 .239.24.478.48.478h23.04c.24 0 .48-.24.48-.479v-11l-11.184 7.892z" fill="#fff"/><path d="M11.714 13.273c.096.048.192.096.288.096.096 0 .192-.048.288-.096L23.796 5.14c.144-.144.24-.335.192-.526-.048-.192-.24-.335-.48-.335H.497c-.192 0-.384.143-.48.335-.048.191 0 .43.192.526l11.505 8.134z" fill="#fff"/></svg><svg viewBox="0 0 24 24" id="check-mark" xmlns="http://www.w3.org/2000/svg"><path d="M0 12.116l2.053-1.897c2.401 1.162 3.924 2.045 6.622 3.969 5.073-5.757 8.426-8.678 14.657-12.555L24 3.169c-5.139 4.484-8.902 9.479-14.321 19.198C6.336 18.431 4.105 15.921 0 12.116z"/></svg><svg viewBox="0 0 86 82" fill="none" id="chemical" xmlns="http://www.w3.org/2000/svg"><path d="M78.886 63.781h-.092a6.692 6.692 0 00-5.271 2.571l-.28.355-.381-.242-26.11-16.563-.398-.252.23-.413a11.276 11.276 0 001.428-5.492c0-3.448-1.55-6.54-3.993-8.619l-.358-.305.282-.376 12.31-16.366.28-.373.39.254a9.353 9.353 0 005.127 1.512c5.214 0 9.457-4.243 9.457-9.458 0-5.214-4.243-9.458-9.457-9.458-5.209 0-9.447 4.243-9.447 9.458a9.522 9.522 0 003.252 7.137l.35.306-.28.372-12.309 16.366-.283.377-.393-.261a11.25 11.25 0 00-6.251-1.889c-4.201 0-7.875 2.303-9.83 5.716l-.233.407-.421-.208-12.366-6.097-.408-.201.161-.425a6.661 6.661 0 00.433-2.366 6.71 6.71 0 00-6.702-6.703A6.71 6.71 0 00.62 29.248a6.71 6.71 0 006.702 6.702 6.703 6.703 0 005.685-3.16l.24-.383.405.2 12.364 6.097.423.209-.184.434a11.261 11.261 0 00-.889 4.399c0 2.74.979 5.256 2.606 7.218l.298.359-.338.322-10.86 10.348-.334.317-.343-.304a6.826 6.826 0 00-4.569-1.722c-3.835 0-6.956 3.122-6.956 6.957a6.965 6.965 0 006.956 6.956c3.829 0 6.946-3.12 6.946-6.956 0-1.576-.52-3.071-1.468-4.275l-.282-.358.33-.314L28.208 51.95l.344-.328.345.328a11.275 11.275 0 0010.092 2.883l.46-.094.123.453 4.375 16.125.115.423-.405.169a4.96 4.96 0 00-3.051 4.573 4.96 4.96 0 004.953 4.954 4.96 4.96 0 004.953-4.954 4.959 4.959 0 00-5.62-4.907l-.433.058-.115-.422-4.375-16.125-.123-.454.446-.15a11.33 11.33 0 005.565-4.104l.275-.38.397.251 26.11 16.563.383.244-.206.405a6.654 6.654 0 00-.724 3.023c0 3.696 3.007 6.704 6.702 6.704a6.71 6.71 0 006.702-6.703l-6.611-6.704zm0 0a6.712 6.712 0 016.611 6.703l-6.611-6.703z" stroke="#00AED5" stroke-opacity=".15"/></svg><svg fill="none" viewBox="0 0 25 25" id="clock" xmlns="http://www.w3.org/2000/svg"><path d="M12.938 1.5C6.897 1.5 2 6.397 2 12.438c0 6.04 4.897 10.937 10.938 10.937 6.04 0 10.937-4.898 10.937-10.938 0-6.04-4.898-10.937-10.938-10.937zm4.309 14.3l-.699.951a.194.194 0 01-.204.075.195.195 0 01-.07-.033l-4.037-2.944a.193.193 0 01-.08-.16V6.97c0-.108.087-.196.195-.196h1.174c.107 0 .195.088.195.196v6.042l3.482 2.517a.192.192 0 01.044.271z" fill="#283642"/></svg><svg fill="none" viewBox="0 0 25 25" id="close" xmlns="http://www.w3.org/2000/svg"><path d="M22.205.347L12.5 10.052 2.795.347.347 2.795l9.705 9.705-9.705 9.705 2.448 2.448 9.705-9.705 9.705 9.705 2.448-2.448-9.705-9.705 9.705-9.705L22.205.347z" fill="#fff"/></svg><svg fill="none" viewBox="0 0 50 40" id="coding" xmlns="http://www.w3.org/2000/svg"><path fill-rule="evenodd" clip-rule="evenodd" d="M30.28.816c1.454.484 2.181 1.696 2.181 3.15L23.253 37.89c-.484.97-1.454 1.697-2.423 1.697h-.727c-1.454-.485-2.18-1.697-1.938-3.15l9.208-33.924C27.615 1.3 29.069.574 30.28.816zm8.723 7.996l9.693 9.692c.969.97.969 2.423 0 3.393l-9.693 9.692c-.484.485-1.211.727-1.696.727-.485 0-1.212-.242-1.696-.727-.97-.969-.97-2.423 0-3.392l7.996-7.996-7.996-7.997c-.97-.969-.97-2.423 0-3.392.97-.969 2.423-.969 3.392 0zm-24.23 0c.969.97.969 2.423 0 3.393L6.776 20.2l7.997 7.996c.969.969.969 2.423 0 3.392-.485.485-.97.727-1.697.727-.726 0-1.212-.242-1.696-.727l-9.692-9.692c-.97-.97-.97-2.423 0-3.392l9.692-9.693c.97-.969 2.423-.969 3.392 0z" fill="#907F53"/></svg><svg viewBox="0 0 27 28" id="cursor" xmlns="http://www.w3.org/2000/svg"><path d="M20.66 14.506c-.83-.1-1.58.524-1.58 1.322v-.673c0-.674-.492-1.272-1.191-1.372-.83-.1-1.58.524-1.58 1.322v-.674c0-.673-.492-1.271-1.191-1.371-.83-.1-1.58.524-1.58 1.322V8.696c0-.723-.621-1.322-1.372-1.322-.751 0-1.373.599-1.373 1.322v10.249c0 .15-.207.2-.285.075-.517-.848-1.113-2.02-1.14-2.02a1.373 1.373 0 00-1.812-.599c-.673.325-.958 1.098-.621 1.746.052.075 1.243 2.394 2.356 3.94 1.425 1.945 2.668 2.893 3.29 3.292.62.424 1.242.648 1.656.648h3.496c.622 0 1.192-.3 1.528-.773l.648-.898c1.243-1.72 1.89-3.84 1.89-6.01v-2.468a1.288 1.288 0 00-1.14-1.372zm-8.495-8.902c.31 0 .544-.224.544-.524V2.886c0-.3-.233-.524-.544-.524-.31 0-.544.224-.544.524V5.08c0 .274.26.524.544.524zm-3.03.897a.583.583 0 00.776 0 .528.528 0 000-.748L8.28 4.207a.58.58 0 00-.777 0 .528.528 0 000 .748l1.632 1.546zm-.182 2.195c0-.3-.233-.524-.544-.524h-2.28c-.31 0-.543.225-.543.524 0 .3.233.524.544.524h2.279c.31 0 .544-.225.544-.524zm6.449 0c0 .3.233.524.544.524h2.28c.31 0 .543-.225.543-.524 0-.3-.233-.524-.544-.524h-2.279c-.31 0-.544.25-.544.524zm-.569-2.045a.58.58 0 00.388-.15l1.606-1.545a.528.528 0 000-.749.579.579 0 00-.777 0l-1.606 1.547a.528.528 0 000 .748c.13.1.26.15.389.15z" fill="#fff"/></svg><svg fill="none" viewBox="0 0 40 40" id="dark-theme" xmlns="http://www.w3.org/2000/svg"><rect width="40" height="40" rx="20" fill="#001322"/><g clip-path="url(#aqa)" fill="#fff"><path d="M18 12.278a.768.768 0 01.08.858 7.208 7.208 0 00-.878 3.46c0 4.02 3.278 7.277 7.318 7.277.527 0 1.04-.055 1.533-.16a.787.787 0 01.81.316.733.733 0 01-.031.893A8.35 8.35 0 0120.344 28C15.734 28 12 24.286 12 19.71c0-3.444 2.114-6.398 5.124-7.65a.752.752 0 01.876.218z"/><path d="M22.795 15.148a.217.217 0 01.412 0l.387 1.162c.173.518.579.924 1.097 1.097l1.162.387a.217.217 0 010 .412l-1.162.387a1.733 1.733 0 00-1.097 1.097l-.387 1.162a.217.217 0 01-.412 0l-.387-1.162a1.735 1.735 0 00-1.097-1.097l-1.162-.387a.217.217 0 010-.412l1.162-.387a1.734 1.734 0 001.097-1.097l.387-1.162zm3.069-3.049a.146.146 0 01.22-.07.146.146 0 01.054.07l.258.774c.115.346.386.617.732.732l.774.258a.144.144 0 01.097.137.145.145 0 01-.097.137l-.774.258a1.155 1.155 0 00-.732.732l-.258.774a.146.146 0 01-.137.098.145.145 0 01-.137-.098l-.258-.774a1.155 1.155 0 00-.732-.732l-.774-.258a.145.145 0 010-.274l.774-.258c.346-.115.617-.386.732-.732l.258-.773v-.001z"/></g><defs><clipPath id="aqa"><path fill="#fff" transform="translate(12 12)" d="M0 0h16v16H0z"/></clipPath></defs></svg><svg fill="none" viewBox="0 0 50 50" id="data" xmlns="http://www.w3.org/2000/svg"><path d="M12.261 9.033a1.613 1.613 0 11-3.226 0 1.613 1.613 0 013.226 0z" fill="#907F53"/><path d="M46.452 5.194a3.585 3.585 0 00-3.58-3.58H6.806a3.585 3.585 0 00-3.58 3.58v7.671a3.585 3.585 0 003.58 3.58h36.058a3.585 3.585 0 003.58-3.58v-7.67h.007zm-35.806 6.742a2.908 2.908 0 01-2.904-2.903c0-1.6 1.304-2.903 2.904-2.903 1.6 0 2.903 1.303 2.903 2.903s-1.303 2.903-2.903 2.903zm24.838-.645c0 .354-.29.645-.645.645a.647.647 0 01-.645-.645V6.775c0-.355.29-.646.645-.646.354 0 .645.29.645.646v4.516zm5.162 0c0 .354-.29.645-.646.645a.647.647 0 01-.645-.645V6.775c0-.355.29-.646.645-.646.355 0 .646.29.646.646v4.516zM12.261 25.162a1.613 1.613 0 11-3.226 0 1.613 1.613 0 013.226 0z" fill="#907F53"/><path d="M42.871 17.742H6.807a3.585 3.585 0 00-3.58 3.581v7.671a3.585 3.585 0 003.58 3.58h36.058a3.585 3.585 0 003.58-3.58v-7.67a3.576 3.576 0 00-3.574-3.582zM10.646 28.065a2.908 2.908 0 01-2.903-2.903c0-1.6 1.303-2.903 2.903-2.903s2.903 1.303 2.903 2.903-1.303 2.903-2.903 2.903zm24.838-.645c0 .354-.29.645-.645.645a.647.647 0 01-.645-.645v-4.516c0-.355.29-.646.645-.646.355 0 .645.29.645.646v4.516zm5.162 0c0 .354-.29.645-.645.645a.647.647 0 01-.646-.645v-4.516c0-.355.29-.646.646-.646.354 0 .645.29.645.646v4.516zM12.261 41.29a1.613 1.613 0 11-3.226 0 1.613 1.613 0 013.226 0z" fill="#907F53"/><path d="M46.452 45.13v-7.678a3.585 3.585 0 00-3.58-3.58H6.806a3.585 3.585 0 00-3.58 3.58v7.671a3.585 3.585 0 003.58 3.58h36.058a3.577 3.577 0 003.587-3.574zm-35.806-.936a2.908 2.908 0 01-2.904-2.903c0-1.6 1.304-2.903 2.904-2.903 1.6 0 2.903 1.303 2.903 2.903s-1.303 2.903-2.903 2.903zm24.838-.646c0 .355-.29.646-.645.646a.647.647 0 01-.645-.646v-4.516c0-.354.29-.645.645-.645.354 0 .645.29.645.645v4.517zm5.162 0c0 .355-.29.646-.646.646a.647.647 0 01-.645-.646v-4.516c0-.354.29-.645.645-.645.355 0 .646.29.646.645v4.517z" fill="#907F53"/></svg><svg fill="none" viewBox="0 0 50 50" id="design" xmlns="http://www.w3.org/2000/svg"><path d="M18.108 35.982h4.407l2.031-2.015a1.564 1.564 0 00.281-1.813l-9.202-18.406v15.984H12.5V13.748L3.297 32.154a1.561 1.561 0 00.281 1.813l2.031 2.015h12.5zM4.688 40.67a1.563 1.563 0 001.562 1.562h1.563v6.25h12.5v-6.25h1.562a1.563 1.563 0 001.563-1.562v-1.563H4.688v1.563zm4.687-37.5a1.563 1.563 0 00-1.563-1.563h-6.25A1.563 1.563 0 000 3.17v6.25a1.563 1.563 0 001.563 1.562h6.25A1.563 1.563 0 009.374 9.42V3.17zM12.5 4.732h4.688v3.125H12.5V4.732zm35.938-3.125h-6.25a1.563 1.563 0 00-1.563 1.563v6.25a1.563 1.563 0 001.563 1.562h6.25A1.563 1.563 0 0050 9.42V3.17a1.563 1.563 0 00-1.563-1.563zm-18.75 3.125V3.17a1.563 1.563 0 00-1.563-1.563h-6.25a1.563 1.563 0 00-1.563 1.563v6.25a1.563 1.563 0 001.563 1.562h6.25a1.563 1.563 0 001.563-1.562V4.732zm12.5 21.875h-1.563a1.563 1.563 0 00-1.563 1.563v6.25a1.562 1.562 0 001.563 1.562h6.25a1.563 1.563 0 001.563-1.562v-6.25a1.563 1.563 0 00-1.563-1.563h-4.688zM32.813 4.732V9.42c3.703 1.828 7.812 5.735 9.046 14.062h3.125c-1.047-8.421-4.922-13.078-8.86-15.625H37.5V4.732h-4.688z" fill="#907F53"/></svg><svg fill="none" viewBox="0 0 50 50" id="doc" xmlns="http://www.w3.org/2000/svg"><path fill-rule="evenodd" clip-rule="evenodd" d="M8.955 42.84V8.919a3.576 3.576 0 013.576-3.561h26.77v-1.78A3.579 3.579 0 0035.738 0H7.174a3.577 3.577 0 00-3.56 3.577v35.688A3.577 3.577 0 007.19 42.84h1.765z" fill="#907F53"/><path fill-rule="evenodd" clip-rule="evenodd" d="M45.33 9.964a3.575 3.575 0 00-2.53-1.046H15.794a3.576 3.576 0 00-3.56 3.576v33.907a3.578 3.578 0 003.56 3.577h27.081a3.577 3.577 0 003.577-3.577V12.494a3.576 3.576 0 00-1.125-2.53h.001zm-15.994 30.19h-8.184v-3.56h8.184v3.56zm8.184-8.918H21.153V27.66H37.52v3.576zm0-8.917H21.153v-3.577H37.52v3.577z" fill="#907F53"/></svg><svg fill="none" viewBox="0 0 50 50" id="dom" xmlns="http://www.w3.org/2000/svg"><g clip-path="url(#aua)"><path d="M41.903 17.025c-3.168 0-5.894 1.923-7.163 4.554H18.06v-8.947h4.39c1.224 2.631 4.014 4.5 7.266 4.5 4.377 0 7.927-3.624 7.927-8 0-4.38-3.549-8.002-7.927-8.002-3.168 0-5.894 2.028-7.163 4.66H18.06V2.529A2.528 2.528 0 0015.532 0H2.692A2.528 2.528 0 00.165 2.529V47.47a2.528 2.528 0 002.528 2.528h12.84a2.528 2.528 0 002.527-2.529v-2.734h6.338c1.223 2.105 4.013 4.446 7.265 4.446 4.378 0 7.928-3.755 7.928-8.13 0-4.38-3.549-8.135-7.928-8.135-3.168 0-5.893 2.345-7.162 4.45H18.06V28.42h16.578c1.224 2.632 4.013 4.605 7.265 4.605 4.378 0 7.927-3.623 7.927-8 0-4.378-3.549-8.001-7.927-8.001v.002z" fill="#907F53"/></g><defs><clipPath id="aua"><path fill="#fff" d="M0 0h50v50H0z"/></clipPath></defs></svg><svg fill="none" viewBox="0 0 56 48" id="double-arrow" xmlns="http://www.w3.org/2000/svg"><path d="M32.248 1.725c-2.841-2.42-7.21-.4-7.21 3.331v11.632L7.456 1.725C4.616-.693.246 1.33.246 5.06v37.896c0 2.561 2.062 4.317 4.273 4.381h.254a4.313 4.313 0 002.683-1.05l17.582-14.962v11.628c0 3.73 4.369 5.75 7.21 3.331L53.86 27.891a5.105 5.105 0 000-7.773L32.248 1.725z" fill="#283642"/></svg><svg fill="none" viewBox="0 0 10 10" id="ellipse" xmlns="http://www.w3.org/2000/svg"><rect width="10" height="10" rx="5" fill="#283642"/></svg><svg viewBox="0 0 24 24" id="email" xmlns="http://www.w3.org/2000/svg"><path d="M19 4H5a3 3 0 00-3 3v10a3 3 0 003 3h14a3 3 0 003-3V7a3 3 0 00-3-3zm0 2l-6.5 4.47a1 1 0 01-1 0L5 6h14z"/></svg><svg fill="none" viewBox="0 0 20 20" id="fb" xmlns="http://www.w3.org/2000/svg"><path d="M7.481 20v-9.385H5V7.237h2.481V4.35C7.481 2.083 8.947 0 12.325 0c1.367 0 2.379.131 2.379.131l-.08 3.155s-1.031-.01-2.157-.01c-1.218 0-1.413.562-1.413 1.493v2.468h3.667l-.16 3.378h-3.507V20H7.481z" fill="#fff"/></svg><svg fill="none" viewBox="0 0 708 708" id="hexan" xmlns="http://www.w3.org/2000/svg"><path d="M23.346 288.057l-.125.217.216.125 11.04 6.373.216.125.125-.216L70.6 232.687l.125-.217-.216-.125-11.04-6.373-.217-.125-.125.217-35.781 61.993zm250.555 3.307l-68.399 118.484-136.814.006L.288 291.37l68.406-118.485 136.808-.005 68.399 118.484zm433.416.006l-68.405 118.478H502.16l-68.433-118.529 68.376-118.434h136.809l68.405 118.485zM431.84 357.048l-.125-.217-.216.125-11.04 6.374-.216.125.125.216 32.396 56.11.125.217.216-.125 11.04-6.374.216-.125-.125-.216-32.396-56.11zm58.81 59.476l-68.376 118.433H285.448l-68.399-118.478 68.399-118.485 136.769-.005 68.433 118.535z" stroke="#00AED5" stroke-opacity=".3" stroke-width=".5"/></svg><svg viewBox="0 0 502.664 502.664" id="icon" xmlns="http://www.w3.org/2000/svg"><path d="M153.821 358.226L0 274.337v-46.463l153.821-83.414v54.574L46.636 250.523l107.185 53.431v54.272zm26.273 29.358L282.103 115.08h32.227L212.084 387.584h-31.99zm168.749-29.358v-54.272l107.164-52.999-107.164-52.59v-53.927l153.821 83.522v46.183l-153.821 84.083z" fill="#010002"/></svg><svg viewBox="0 0 69 34" id="infinity" xmlns="http://www.w3.org/2000/svg"><path d="M68.407 17a16.407 16.407 0 01-28 11.594l-.136-.137L23.89 9.973a9.844 9.844 0 100 14.054l.849-.957a3.284 3.284 0 014.921 4.348l-.93 1.04-.136.136a16.38 16.38 0 01-23.188 0A16.406 16.406 0 0117 .594a16.215 16.215 0 0111.594 4.812l.137.137L45.11 24.028a9.844 9.844 0 100-14.055l-.848.957a3.284 3.284 0 11-4.922-4.348l.93-1.039.136-.137a16.406 16.406 0 0128 11.594z"/></svg><svg fill="none" viewBox="0 0 20 20" id="insta" xmlns="http://www.w3.org/2000/svg"><g clip-path="url(#bca)"><path d="M9.999 6.745a3.261 3.261 0 00-3.255 3.254A3.261 3.261 0 0010 13.254a3.261 3.261 0 003.254-3.255A3.261 3.261 0 0010 6.745zm9.76 3.254c0-1.347.013-2.683-.063-4.028-.076-1.563-.432-2.95-1.575-4.092C16.976.734 15.592.38 14.03.304 12.681.23 11.346.241 10 .241c-1.347 0-2.683-.012-4.028.063C4.41.38 3.023.737 1.88 1.88.736 3.024.382 4.41.306 5.971.231 7.319.243 8.654.243 9.999c0 1.345-.012 2.683.063 4.029.076 1.562.433 2.949 1.575 4.091 1.145 1.145 2.53 1.5 4.092 1.575 1.348.076 2.683.064 4.028.064 1.348 0 2.683.012 4.029-.064 1.562-.076 2.949-.432 4.091-1.575 1.145-1.145 1.5-2.529 1.575-4.091.078-1.346.063-2.681.063-4.029zM10 15.007a5 5 0 01-5.01-5.008A5 5 0 0110 4.992a5 5 0 015.007 5.007A5 5 0 0110 15.007zm5.212-9.05a1.169 1.169 0 110-2.34 1.168 1.168 0 01.827 1.997 1.167 1.167 0 01-.827.342z" fill="#fff"/></g><defs><clipPath id="bca"><path fill="#fff" d="M0 0h20v20H0z"/></clipPath></defs></svg><svg fill="none" viewBox="0 0 24 24" id="instagram" xmlns="http://www.w3.org/2000/svg"><path d="M12 8.876A3.13 3.13 0 008.874 12a3.13 3.13 0 003.124 3.124A3.13 3.13 0 0015.123 12 3.13 3.13 0 0012 8.876zM21.37 12c0-1.294.011-2.576-.062-3.867-.072-1.5-.414-2.831-1.511-3.928-1.1-1.1-2.428-1.44-3.928-1.512-1.294-.073-2.576-.061-3.867-.061-1.294 0-2.576-.012-3.868.061-1.5.073-2.831.415-3.928 1.512-1.1 1.099-1.439 2.428-1.512 3.928-.072 1.294-.06 2.576-.06 3.867s-.012 2.576.06 3.867c.073 1.5.415 2.831 1.512 3.928 1.1 1.1 2.428 1.44 3.928 1.512 1.294.073 2.576.061 3.867.061 1.294 0 2.576.012 3.868-.061 1.5-.073 2.83-.415 3.928-1.512 1.099-1.099 1.439-2.428 1.511-3.928.076-1.291.061-2.573.061-3.867zM12 16.807A4.8 4.8 0 017.191 12 4.8 4.8 0 0112 7.193 4.8 4.8 0 0116.806 12 4.8 4.8 0 0112 16.807zm5.003-8.688a1.121 1.121 0 01-1.123-1.123c0-.621.502-1.123 1.123-1.123a1.121 1.121 0 01.43 2.16 1.121 1.121 0 01-.43.086z" fill="#fff"/></svg><svg fill="none" viewBox="0 0 71 70" id="landing" xmlns="http://www.w3.org/2000/svg"><path d="M59.086 4H13.914A7.417 7.417 0 006.5 11.414v6.515h60v-6.515A7.417 7.417 0 0059.086 4zM16.143 15.25c-1.179 0-2.164-.964-2.164-2.143a2.15 2.15 0 012.142-2.143h.022a2.15 2.15 0 012.143 2.143 2.15 2.15 0 01-2.143 2.143zm7.457 0c-1.179 0-2.165-.964-2.165-2.143a2.15 2.15 0 012.143-2.143h.022a2.15 2.15 0 012.143 2.143A2.149 2.149 0 0123.6 15.25zm7.457 0c-1.178 0-2.164-.964-2.164-2.143a2.15 2.15 0 012.143-2.143h.021a2.15 2.15 0 012.143 2.143 2.15 2.15 0 01-2.143 2.143zm2.358 23.936l-6.557-4.35-6.557 4.35v8.335h13.114v-8.335z" fill="#283642"/><path d="M6.5 56.586A7.417 7.417 0 0013.914 64h45.172a7.417 7.417 0 007.414-7.414V22.214h-60v34.372zm38.035-26.464h12.857c1.179 0 2.143.943 2.143 2.143a2.15 2.15 0 01-2.143 2.143H44.535a2.15 2.15 0 01-2.143-2.143c0-1.2.964-2.143 2.143-2.143zm0 8.7h12.857a2.15 2.15 0 012.143 2.143 2.15 2.15 0 01-2.143 2.143H44.535a2.15 2.15 0 01-2.143-2.143 2.15 2.15 0 012.143-2.143zm0 8.7h6.429a2.15 2.15 0 012.142 2.143c0 1.2-.964 2.143-2.142 2.143h-6.429a2.135 2.135 0 01-2.143-2.143 2.15 2.15 0 012.143-2.143zM14.964 37.58l10.714-7.115c.696-.41 1.602-.452 2.314-.021 0 .021.021.021.043.021l10.714 7.115a2.117 2.117 0 01.6 2.956c-.385.6-1.007.9-1.65.943v8.186c0 1.2-.964 2.143-2.143 2.143h-17.4a2.135 2.135 0 01-2.143-2.143V41.48c-.643-.043-1.264-.343-1.65-.943a2.117 2.117 0 01.6-2.956z" fill="#283642"/></svg><svg fill="none" viewBox="0 0 16 16" id="light" xmlns="http://www.w3.org/2000/svg"><path fill-rule="evenodd" clip-rule="evenodd" d="M8 0a1 1 0 011 1v1a1 1 0 01-2 0V1a1 1 0 011-1zm4 8a4 4 0 11-8 0 4 4 0 018 0zm-.464 4.95l.707.707a1 1 0 001.414-1.414l-.707-.707a1 1 0 00-1.414 1.414zm2.12-10.607a1 1 0 010 1.414l-.706.707a1 1 0 11-1.414-1.414l.707-.707a1 1 0 011.414 0h-.001zM15 9a1 1 0 100-2h-1a1 1 0 100 2h1zm-7 4a1 1 0 011 1v1a1 1 0 11-2 0v-1a1 1 0 011-1zM3.05 4.464A1 1 0 004.465 3.05l-.708-.707a1 1 0 00-1.414 1.414l.707.707zm1.414 8.486l-.707.707a1 1 0 01-1.414-1.414l.707-.707a1 1 0 011.414 1.414zM2 9a1 1 0 000-2H1a1 1 0 000 2h1z" fill="#001322"/></svg><svg fill="none" viewBox="0 0 40 40" id="light-theme" xmlns="http://www.w3.org/2000/svg"><rect width="40" height="40" rx="20" fill="#fff"/><g clip-path="url(#bga)"><path fill-rule="evenodd" clip-rule="evenodd" d="M20 12a1 1 0 011 1v1a1 1 0 01-2 0v-1a1 1 0 011-1zm4 8a4 4 0 11-8 0 4 4 0 018 0zm-.464 4.95l.707.707a1 1 0 001.414-1.414l-.707-.707a1 1 0 00-1.414 1.414zm2.12-10.607a1 1 0 010 1.414l-.706.707a1 1 0 11-1.414-1.414l.707-.707a1 1 0 011.414 0h-.001zM27 21a1 1 0 000-2h-1a1 1 0 000 2h1zm-7 4a1 1 0 011 1v1a1 1 0 01-2 0v-1a1 1 0 011-1zm-4.95-8.536a1 1 0 001.415-1.414l-.708-.707a1 1 0 00-1.414 1.414l.707.707zm1.414 8.486l-.707.707a1 1 0 01-1.414-1.414l.707-.707a1 1 0 011.414 1.414zM14 21a1 1 0 000-2h-1a1 1 0 000 2h1z" fill="#001322"/></g><defs><clipPath id="bga"><path fill="#fff" transform="translate(12 12)" d="M0 0h16v16H0z"/></clipPath></defs></svg><svg fill="none" viewBox="0 0 204 6" id="line" xmlns="http://www.w3.org/2000/svg"><path d="M.333 3a2.667 2.667 0 105.334 0A2.667 2.667 0 00.333 3zm198 0a2.667 2.667 0 105.334 0 2.667 2.667 0 00-5.334 0zM3 3.5h198v-1H3v1z" fill="#283642"/></svg><svg fill="none" viewBox="0 0 20 20" id="ln" xmlns="http://www.w3.org/2000/svg"><path fill-rule="evenodd" clip-rule="evenodd" d="M7.859 7.474h3.095v1.541c.446-.886 1.589-1.683 3.306-1.683 3.293 0 4.075 1.765 4.075 5.003v5.998H15v-5.26c0-1.845-.445-2.885-1.58-2.885-1.575 0-2.229 1.121-2.229 2.884v5.26H7.86V7.475zM2.143 18.19h3.333V7.331H2.143v10.86zm3.81-14.4a2.108 2.108 0 01-.627 1.502 2.158 2.158 0 01-3.032 0 2.123 2.123 0 01-.626-1.502c0-.564.225-1.104.627-1.502a2.152 2.152 0 013.031 0c.402.398.628.938.628 1.502z" fill="#fff"/></svg><svg viewBox="0 0 24 24" id="location" xmlns="http://www.w3.org/2000/svg"><path d="M10.89 23.447C8.441 20.437 3 13.144 3 9.047a9 9 0 1118 0c0 4.097-5.484 11.39-7.89 14.4a1.416 1.416 0 01-2.22 0zm1.11-11.4c1.655 0 3-1.345 3-3s-1.345-3-3-3-3 1.345-3 3 1.345 3 3 3z"/></svg><svg fill="none" viewBox="0 0 71 70" id="multipage" xmlns="http://www.w3.org/2000/svg"><path d="M15.457 41.58a2.345 2.345 0 00-2.11-1.305c-.9 0-1.708.5-2.11 1.305L5.559 52.934h15.576L15.457 41.58zm12.659-23.46a3.169 3.169 0 013.165-3.165h22.155v-2.11h-35.87v16.88h10.55V18.12zm2.11-10.55V4.405h-9.495a3.169 3.169 0 00-3.165 3.165v3.165H31.31a5.221 5.221 0 01-1.082-3.165zm-5.278 36.925c-.932 0-1.81.497-2.29 1.297l-1.494 2.489 2.326 4.654h8.035L27.24 45.79a2.687 2.687 0 00-2.292-1.296z" fill="#fff"/><path d="M13.346 38.165c1.704 0 3.236.946 3.997 2.47l2.007 4.014a.857.857 0 001.5.058 4.809 4.809 0 014.101-2.322c.422 0 .836.058 1.234.166.83.228 1.931-.308 1.931-1.169v-8.547a1 1 0 00-1-1H5.906a1 1 0 00-1 1v12.45c0 1.055 1.423 1.39 1.895.447l2.548-5.097a4.443 4.443 0 013.997-2.47zm9.495-4.22a3.169 3.169 0 013.165 3.165 3.169 3.169 0 01-3.165 3.165 3.169 3.169 0 01-3.165-3.165 3.169 3.169 0 013.165-3.165zm-5.275 21.1v7.385a3.169 3.169 0 003.165 3.165h29.54a3.169 3.169 0 003.165-3.165v-7.385h-35.87zm7.385 6.33c0 .582-.473 1.055-1.055 1.055h-2.11a1.056 1.056 0 01-1.055-1.055v-2.11c0-.582.473-1.055 1.055-1.055h2.11c.582 0 1.055.473 1.055 1.055v2.11zm21.1-2.11c0-.582.473-1.055 1.055-1.055h2.11c.582 0 1.055.473 1.055 1.055v2.11c0 .582-.473 1.055-1.055 1.055h-2.11a1.056 1.056 0 01-1.055-1.055v-2.11zm-6.33 0v2.11c0 .582-.473 1.055-1.055 1.055h-6.33a1.056 1.056 0 01-1.055-1.055v-2.11c0-.582.473-1.055 1.055-1.055h6.33c.582 0 1.055.473 1.055 1.055zm-5.276-10.55h18.99v4.22h-18.99v-4.22zm30.596-31.65h-33.76c-.582 0-1.054.473-1.054 1.055v5.275h35.87V18.12c0-.582-.473-1.055-1.056-1.055zm-30.594 4.22h-2.11v-2.11h2.11v2.11zm4.22 0h-2.11v-2.11h2.11v2.11zm4.22 0h-2.11v-2.11h2.11v2.11zM30.227 45.55c0 .582.472 1.055 1.055 1.055h33.76c.582 0 1.054-.473 1.054-1.055V25.505h-35.87V45.55zm32.704-2.11h-12.66v-6.33h12.66v6.33zM49.217 27.615h14.77v2.11h-14.77v-2.11zm0 4.22h14.77v2.11h-14.77v-2.11zm-2.11 8.44h-10.55v-2.11h10.55v2.11zM33.391 28.67h12.66V35h-12.66v-6.33zm-1.055 9.495h2.11v2.11h-2.11v-2.11zm0 4.22h14.77v2.11h-14.77v-2.11zM53.434 7.57a3.169 3.169 0 00-3.165-3.165h-9.495V7.57a5.222 5.222 0 01-1.083 3.165h13.743V7.57zm-3.165 1.055a1.056 1.056 0 11.001-2.111 1.056 1.056 0 01-.001 2.111zM35.5 10.735a3.169 3.169 0 003.166-3.165V4.405h-6.33V7.57a3.169 3.169 0 003.165 3.165zm0-4.22a1.056 1.056 0 110 2.111 1.056 1.056 0 010-2.111z" fill="#fff"/></svg><svg viewBox="0 0 24 24" id="pdf" xmlns="http://www.w3.org/2000/svg"><path d="M8.267 14.68c-.184 0-.308.018-.372.036v1.178c.076.018.171.023.302.023.479 0 .774-.242.774-.651 0-.366-.254-.586-.704-.586zm3.487.012c-.2 0-.33.018-.407.036v2.61c.077.018.201.018.313.018.817.006 1.349-.444 1.349-1.396.006-.83-.479-1.268-1.255-1.268z"/><path d="M14 2H6a2 2 0 00-2 2v16a2 2 0 002 2h12a2 2 0 002-2V8l-6-6zM9.498 16.19c-.309.29-.765.42-1.296.42a2.233 2.233 0 01-.308-.018v1.426H7v-3.936A7.53 7.53 0 018.219 14c.557 0 .953.106 1.22.319.254.202.426.533.426.923-.001.392-.131.723-.367.948zm3.807 1.355c-.42.349-1.059.515-1.84.515-.468 0-.799-.03-1.024-.06v-3.917A7.942 7.942 0 0111.66 14c.757 0 1.249.136 1.633.426.415.308.675.799.675 1.504 0 .763-.279 1.29-.663 1.615zM17 14.77h-1.532v.911H16.9v.734h-1.432v1.604h-.906V14.03H17v.74zM14 9h-1V4l5 5h-4z"/></svg><svg fill="none" viewBox="0 0 24 24" id="phone" xmlns="http://www.w3.org/2000/svg"><path d="M13.446 6.24l3.383-3.905c.39-.45 1.105-.448 1.558.006l2.782 2.787c.828.829 1.065 2.06.586 3.047a29.207 29.207 0 01-13.561 13.58c-.986.479-2.216.242-3.044-.587l-2.808-2.813c-.455-.455-.456-1.174-.002-1.564l3.92-3.365c.41-.352 1.047-.306 1.458.106l1.364 1.366a.462.462 0 00.553.088 14.557 14.557 0 005.36-5.367.463.463 0 00-.088-.554l-1.36-1.361c-.412-.414-.457-1.054-.101-1.465v.001z" fill="#fff"/></svg><svg fill="none" viewBox="0 0 60 60" id="php" xmlns="http://www.w3.org/2000/svg"><path d="M47.92 41.769c-.747 0-1.244-.25-1.742-.747-.995-.996-.995-2.49 0-3.485l7.716-7.715-7.467-7.218c-.995-.995-.995-2.49 0-3.485.995-.995 2.49-.995 3.484 0l9.21 9.21c.497.497.746.995.746 1.741 0 .747-.249 1.245-.747 1.743l-9.458 9.457c-.497.25-.995.498-1.742.498zm-35.84.001c-.747 0-1.245-.25-1.742-.748L.88 31.565c-.498-.498-.747-.996-.747-1.743 0-.746.249-1.244.747-1.742l9.208-9.208c.996-.996 2.49-.996 3.485 0 .995.995.995 2.488 0 3.484l-7.218 7.218 7.467 7.964c.995.995.995 2.49 0 3.485-.498.497-.996.746-1.742.746zm17.92.746c-1.494 0-2.49-.996-2.49-2.49V28.577c0-1.493.996-2.489 2.49-2.489 3.484 0 6.222-2.738 6.222-6.222 0-3.484-2.738-6.222-6.223-6.222-3.484 0-6.222 2.738-6.222 6.222 0 1.493-.995 2.49-2.49 2.49-1.492 0-2.488-.996-2.488-2.49 0-6.222 4.977-11.2 11.2-11.2 6.222 0 11.2 4.978 11.2 11.2 0 5.227-3.733 9.707-8.711 10.951v9.21c0 1.493-1.244 2.489-2.489 2.489zm0 8.713c-1.492 0-2.488-.995-2.488-2.49v-.746c0-1.493.995-2.49 2.489-2.49 1.493 0 2.489.996 2.489 2.49v.747c0 1.244-.996 2.489-2.49 2.489z" fill="#907F53"/></svg><svg viewBox="0 0 40 40" id="quotes" xmlns="http://www.w3.org/2000/svg"><path d="M14 12l2-4h-4c-4.42 0-8 5.58-8 10v14h14V18h-8c0-6 4-6 4-6zm14 6c0-6 4-6 4-6l2-4h-4c-4.42 0-8 5.58-8 10v14h14V18h-8z"/></svg><svg fill="none" viewBox="0 0 71 70" id="redesign" xmlns="http://www.w3.org/2000/svg"><g clip-path="url(#bpa)" fill="#283642"><path d="M25.852 50.375h6.169l2.844-2.822a2.19 2.19 0 00.393-2.537l-12.884-25.77v22.378H18V19.247L5.116 45.016a2.185 2.185 0 00.393 2.537l2.844 2.822h17.499zM7.063 56.938a2.188 2.188 0 002.187 2.187h2.188v8.75h17.5v-8.75h2.187a2.188 2.188 0 002.188-2.188V54.75H7.063v2.188zm6.562-52.5a2.188 2.188 0 00-2.188-2.188h-8.75A2.188 2.188 0 00.5 4.438v8.75a2.188 2.188 0 002.188 2.187h8.75a2.188 2.188 0 002.187-2.188v-8.75zM18 6.625h6.563V11H18V6.625zM68.313 2.25h-8.75a2.188 2.188 0 00-2.188 2.188v8.75a2.188 2.188 0 002.188 2.187h8.75a2.188 2.188 0 002.187-2.188v-8.75a2.188 2.188 0 00-2.188-2.187zm-26.25 4.375V4.437a2.188 2.188 0 00-2.188-2.187h-8.75a2.188 2.188 0 00-2.188 2.188v8.75a2.188 2.188 0 002.188 2.187h8.75a2.188 2.188 0 002.188-2.188V6.625zm17.5 30.625h-2.188a2.188 2.188 0 00-2.188 2.188v8.75a2.188 2.188 0 002.188 2.187h8.75a2.188 2.188 0 002.188-2.188v-8.75a2.188 2.188 0 00-2.188-2.187h-6.563zM46.438 6.625v6.563c5.184 2.56 10.937 8.028 12.664 19.687h4.376C62.011 21.085 56.587 14.565 51.073 11H53V6.625h-6.562z"/></g><defs><clipPath id="bpa"><path fill="#fff" transform="translate(.5)" d="M0 0h70v70H0z"/></clipPath></defs></svg><svg fill="none" viewBox="0 0 50 50" id="redux" xmlns="http://www.w3.org/2000/svg"><path d="M24 2c-7.169 0-13 8.292-13 18.486 0 5.267 1.564 10.009 4.06 13.373A3.5 3.5 0 1018.5 31a3.498 3.498 0 00-.569.05c-1.788-2.663-2.932-6.439-2.932-10.564C15 12.633 19.121 6 24 6c4.12 0 7.69 4.738 8.704 10.938a26.97 26.97 0 014.226 1.627C36.251 9.27 30.711 2 24 2zm-1.5 15a3.5 3.5 0 103.14 5.041c3.25-.204 7.005.8 10.473 2.877 6.86 4.113 10.59 11.305 8.144 15.705-.804 1.446-2.252 2.486-4.19 3.004-2.788.746-6.208.367-9.577-.988a28.169 28.169 0 01-3.528 2.785c3.328 1.68 6.848 2.572 10.1 2.572 1.41 0 2.77-.166 4.04-.506 3.008-.805 5.308-2.508 6.651-4.924 3.584-6.449-.626-15.708-9.584-21.078-4.262-2.556-8.984-3.734-13.134-3.394A3.5 3.5 0 0022.498 17zM9.16 23.324C2.079 28.795-.96 36.8 2.247 42.566c1.343 2.416 3.644 4.12 6.65 4.924a15.64 15.64 0 004.042.506c3.8 0 7.97-1.206 11.767-3.482 4.248-2.547 7.39-5.97 9.17-9.551C35.627 34.773 37 33.3 37 31.5c0-1.93-1.57-3.5-3.5-3.5S30 29.57 30 31.5c0 .54.133 1.047.352 1.504-1.444 2.975-4.138 5.941-7.701 8.078-4.296 2.576-9.051 3.528-12.719 2.545-1.936-.518-3.383-1.558-4.187-3.004-1.934-3.48.002-8.7 4.285-12.767a26.521 26.521 0 01-.87-4.532z" fill="#907F53"/></svg><svg fill="none" viewBox="0 0 24 24" id="schedule" xmlns="http://www.w3.org/2000/svg"><path d="M23.143 4.286h-4.286v-1.5a.215.215 0 00-.214-.215h-1.5a.215.215 0 00-.214.215v1.5h-3.965v-1.5a.215.215 0 00-.214-.215h-1.5a.215.215 0 00-.214.215v1.5H7.07v-1.5a.215.215 0 00-.214-.215h-1.5a.215.215 0 00-.214.215v1.5H.857A.856.856 0 000 5.143V20.57c0 .474.383.857.857.857h22.286A.856.856 0 0024 20.57V5.143a.856.856 0 00-.857-.857zm-13.5 12.428a.215.215 0 01-.214.214H4.5a.215.215 0 01-.214-.214v-1.286c0-.117.096-.214.214-.214h4.929c.117 0 .214.097.214.214v1.286zm0-3.643a.215.215 0 01-.214.215H4.5a.215.215 0 01-.214-.215v-1.285c0-.118.096-.215.214-.215h4.929c.117 0 .214.097.214.215v1.285zm10.031-2.445l-4.42 6.126a.426.426 0 01-.69 0l-3.06-4.238a.215.215 0 01.175-.34h1.47a.43.43 0 01.346.177l1.414 1.958 2.778-3.85a.423.423 0 01.345-.176H19.5c.174.003.276.2.174.343z" fill="#fff"/></svg><svg fill="none" viewBox="0 0 21 22" id="show-more" xmlns="http://www.w3.org/2000/svg"><path d="M5.625 6.875h-4.5m0 5.25c0 3.75 4.197 8.25 9.375 8.25a9.375 9.375 0 100-18.75c-5.625 0-9.375 5.25-9.375 5.25v-5.25" stroke="#fff" stroke-width="1.5" stroke-linecap="round" stroke-linejoin="round"/></svg><svg viewBox="0 0 16 16" id="small-arrow" xmlns="http://www.w3.org/2000/svg"><path d="M3.82 14.173a.5.5 0 01.091-.567l4.625-4.757a.5.5 0 000-.698L3.911 3.394a.5.5 0 01-.09-.567l.576-1.186a.5.5 0 01.808-.13l6.456 6.64a.5.5 0 010 .698l-6.456 6.64a.5.5 0 01-.808-.13l-.577-1.186z"/></svg><svg fill="none" viewBox="0 0 71 70" id="support" xmlns="http://www.w3.org/2000/svg"><path d="M22.789 23.206l2.956.521c.347 1.287.86 2.523 1.528 3.677l-1.72 2.456a2.27 2.27 0 00.249 2.913l1.77 1.771h.001a2.271 2.271 0 002.913.25l2.457-1.72c1.153.667 2.39 1.18 3.676 1.527l.522 2.956a2.271 2.271 0 002.235 1.878h2.534a2.269 2.269 0 002.236-1.878l.521-2.956a15.305 15.305 0 003.67-1.528l2.456 1.721a2.269 2.269 0 002.913-.25l1.771-1.77a2.269 2.269 0 00.25-2.914l-1.75-2.456a15.318 15.318 0 001.5-3.677l2.956-.522a2.272 2.272 0 001.878-2.234v-2.507a2.268 2.268 0 00-1.878-2.234l-2.956-.521a15.31 15.31 0 00-1.528-3.678l1.72-2.456a2.27 2.27 0 00-.192-2.913l-1.8-1.771a2.268 2.268 0 00-2.913-.257l-2.427 1.72a15.285 15.285 0 00-3.678-1.527l-.521-2.956A2.27 2.27 0 0041.91 0h-2.54a2.27 2.27 0 00-2.235 1.878l-.522 2.956a15.302 15.302 0 00-3.677 1.52l-2.449-1.72a2.27 2.27 0 00-2.913.257l-1.77 1.77h-.001a2.272 2.272 0 00-.25 2.914l1.72 2.456a15.31 15.31 0 00-1.535 3.678l-2.956.521a2.273 2.273 0 00-1.877 2.234v2.507a2.271 2.271 0 001.885 2.235zm17.85-11.925a8.435 8.435 0 018.411 8.447 8.43 8.43 0 01-8.44 8.418 8.432 8.432 0 01-8.425-8.432 8.447 8.447 0 018.44-8.433h.015zM16.992 69.974L2.832 56.18l10.14-10.075a15.457 15.457 0 0116.008-3.62l2.22.778h13.71a4.286 4.286 0 014.283 4.449 4.434 4.434 0 01-4.498 4.184h-8.197a1.678 1.678 0 100 3.356h8.226a7.855 7.855 0 007.847-7.412v-.107l7.611-8.568a4.605 4.605 0 016.327-.607 4.483 4.483 0 01.52 6.426L51.836 62.356a10.66 10.66 0 01-8.033 3.656h-22.85l-3.962 3.962zm19.144-50.26a4.492 4.492 0 118.983.001 4.492 4.492 0 01-8.983 0z" fill="#283642"/></svg><svg fill="none" viewBox="0 0 228 265" id="teeth" xmlns="http://www.w3.org/2000/svg"><g clip-path="url(#bva)"><path d="M207.076 172.461c.714-2.141.146-4.157 1.43-4.705 1.285-.548 2.732 1.621 3.085 2.748.352 1.127 0 4.964 0 4.964s-.669 13.037-.12 15.756c.549 2.718 1.359 3.667 1.354 5.962-.006 2.295-.485 8.849-1.354 10.551-.869 1.703-2.834 4.976-5.62 5.192-2.785.217-4.566-4.298-5.919-4.92-1.352-.623-3.089.278-4.791-.54-1.702-.818-1.756-6.072-1.336-7.801.419-1.729 3.503-8.822 3.803-9.573.301-.752 8.754-15.493 9.468-17.634zm-89.514 49.351c.174-1.063.771-1.979-1.05-2.61-1.819-.63-4.494 2.21-6.141 2.61-1.648.4-8.434-1.839-9.941.768-1.506 2.607-2.185 24.812-.889 27.942 1.297 3.13 3.969 5.848 4.768 6.986.8 1.138 2.126 6.501 4.769 6.217 2.643-.282 3.464-2.505 3.879-3.3.414-.795 1.186-9.903 1.535-11.592s1.5-3.684 2.02-6.524c.522-2.841-.89-9.565-.727-11.285.163-1.72 1.603-8.149 1.777-9.212z" fill="#fff" stroke="#909090" stroke-opacity=".25"/><path d="M113.519 221.812c-.166-1.063-.733-1.979.999-2.61 1.732-.63 4.279 2.21 5.847 2.61 1.57.4 7.636-.735 9.464.768 1.829 1.503 2.081 24.812.847 27.942-1.235 3.13-3.779 5.848-4.54 6.986-.761 1.138-2.023 6.501-4.539 6.217-2.516-.282-3.299-2.505-3.693-3.3-.395-.795-1.13-9.903-1.463-11.592-.331-1.689-1.427-3.684-1.923-6.524-.496-2.841.848-9.565.693-11.285-.156-1.72-1.527-8.149-1.692-9.212zm-38.013-4.759c.124-1.216.609-3.789 2.598-4.838 1.99-1.049 4.479-1.095 5.995-.548 1.516.548 4.376 3.882 5.495 4.108 1.12.226 5.25-.285 6.394 0 1.145.285 2.316 2.091 2.698 3.56.382 1.468 0 5.58 0 8.215s-1.254 17.3-1.899 19.259c-.643 1.96-6.523 13.719-8.792 13.875-2.268.155-8.518-15.601-9.391-17.344-.873-1.742-3.044-14.265-3.098-15.79-.053-1.525-.123-9.281 0-10.497zm79.283 0c-.124-1.216-.609-3.789-2.598-4.838-1.989-1.049-4.478-1.095-5.994-.548-1.517.548-4.377 3.882-5.496 4.108-1.119.226-5.249-.285-6.394 0-1.145.285-2.316 2.091-2.698 3.56-.382 1.468 0 5.58 0 8.215s1.254 17.3 1.898 19.259c.645 1.96 6.524 13.719 8.793 13.875 2.269.155 8.518-15.601 9.392-17.344.873-1.742 3.043-14.265 3.097-15.79.053-1.525.124-9.281 0-10.497z" fill="#fff" stroke="#909090" stroke-opacity=".25"/><path d="M67.92 186.371s9.552-13.81 10.019-13.52c.467.29-1.704 3.741-1.977 4.423-.272.683-.788 1.332-1.516 6.854s0 24.923 0 24.923.988 25.081 1.253 26.729c.264 1.647 1.942 8.153 1.846 9.221-.097 1.068-1.213 3.699-1.385 4.673-.172.975-.119 5.552-.937 6.058-.818.506-2.419-1.587-3.305-1.189-.887.398-1.251 4.73-1.822 5.35-.572.62-1.538 1.192-2.967.311-1.428-.881-5.671-7.55-6.262-9.159-.59-1.61-.082-6.471-.923-8.847-.84-2.377-.64-.404-2.044-5.235-1.405-4.829-.389-27.68 0-30.031.389-2.351 2.383-8.35 2.901-9.221.518-.871 7.12-11.34 7.12-11.34zm94.453 0s-9.553-13.81-10.018-13.52c-.467.29 1.704 3.741 1.976 4.423.272.683.789 1.332 1.516 6.854.728 5.522 0 24.923 0 24.923s-.988 25.081-1.252 26.729c-.265 1.647-1.942 8.153-1.846 9.221.097 1.068 1.212 3.699 1.385 4.673.171.975.119 5.552.936 6.058.818.506 2.419-1.587 3.306-1.189.886.398 1.251 4.73 1.821 5.35.571.62 1.538 1.192 2.967.311s5.671-7.55 6.262-9.159c.591-1.61.083-6.471.923-8.847.84-2.377.64-.404 2.044-5.235 1.406-4.829.389-27.68 0-30.031-.389-2.351-2.383-8.35-2.9-9.221-.519-.871-7.12-11.34-7.12-11.34zm-131.648-4.555c.187-1.018 2.118-4.085 3.863-5.042 1.744-.956 2.263.868 2.263.868l.826 1.758c.515 1.366 1.721 4.39 2.428 5.566.706 1.177 4.166 6.357 4.855 7.772.688 1.416.332 2.911 0 4.726-.333 1.815-2.98 8.402-2.98 8.402s-4.18 10.74-4.303 11.132c-.122.392-.372 4.001-.883 4.411-.51.41-.842.271-1.324 0-.481-.27-1.639-2.71-2.427-4.411-.789-1.701-3.619-4.022-4.634-7.876-1.016-3.855 0-12.393 0-12.393.368-1.09 2.13-13.896 2.316-14.913z" fill="#fff" stroke="#909090" stroke-opacity=".25"/><path d="M49.42 196.566c1.729-.57 1.468-2.565 3.05-2.581 1.583-.016 2.933.671 3.317 2.581.384 1.909 1.139 10.989.384 12.167-.756 1.178-1.11 1.834-1.61 3.106-.501 1.272 0 7.566 0 7.884 0 .318-.53 7.475-.53 11.047 0 0-.032 4.367-.323 6.607-.292 2.24 1.59 4.869.813 5.796-.778.927-4.43-4.629-5.092-5.187-.661-.559-.804.119-2.163-.998-1.36-1.118-2.862-9.363-3.815-12.499-.953-3.136-3.901-9.544-4.111-14.292-.21-4.749 2.553-11.14 3.182-12.176.63-1.035.34-.8 2.454-1.455 2.114-.656 2.714.57 4.443 0zm131.868-2.905c-1.827-.589-1.551-2.653-3.222-2.67-1.672-.017-3.096.694-3.502 2.67-.405 1.975-1.289 11.689-.492 12.908.797 1.219.495 1.378 1.345 3.072.849 1.692 0 8.165 0 8.493 0 .329.875 7.287.875 10.985 0 0-.244 4.519.064 6.837.308 2.318-1.276 4.969-.455 5.928.821.96 4.678-4.788 5.376-5.366.698-.578.849.124 2.285-1.033 1.435-1.156 3.021-9.687 4.027-12.932 1.006-3.245 4.12-9.875 4.341-14.789.222-4.912-2.696-11.525-3.36-12.596-.664-1.072-.36-.829-2.591-1.507-2.231-.678-2.865.59-4.691 0z" fill="#fff" stroke="#909090" stroke-opacity=".25"/><path d="M18.303 181.898c.116-.933.612-5.678 2.216-6.823 1.604-1.144 8.948 7.471 9.97 8.937 1.022 1.466.182 5.325 0 6.919-.182 1.594-2.112 6.508-2.417 7.303-.305.796-3.46 6.231-5.136 6.535-1.672.303-3.785-3.548-4.629-5.086l-.004-.007c-.841-1.534-1.125-2.178-1.309-3.652-.184-1.473-.096-3.338 0-4.517.096-1.177 1.193-8.676 1.31-9.609z" fill="#fff"/><path d="M17.971 199.866l.334-.183-.334.183zm0 0l.004.006c.42.768 1.17 2.135 2.03 3.273.43.57.901 1.102 1.387 1.475.478.367 1.034.628 1.61.523.29-.052.578-.207.846-.401a6.26 6.26 0 00.83-.748c.555-.585 1.129-1.335 1.652-2.091a33.968 33.968 0 001.375-2.163c.363-.624.633-1.138.722-1.37l.089-.232c.223-.577.701-1.816 1.168-3.129.273-.766.543-1.561.757-2.266.211-.698.376-1.333.425-1.769.03-.256.08-.592.137-.978.11-.74.247-1.661.316-2.543.053-.685.07-1.38.004-2.005-.064-.618-.213-1.209-.523-1.653-.527-.757-2.635-3.295-4.808-5.497-1.086-1.102-2.204-2.135-3.16-2.824-.477-.343-.933-.615-1.338-.761-.388-.141-.839-.204-1.198.053-.485.346-.851.933-1.134 1.573-.287.651-.51 1.405-.681 2.14-.311 1.326-.468 2.63-.538 3.21l-.02.162c-.035.287-.17 1.242-.342 2.45-.369 2.597-.903 6.366-.968 7.176-.097 1.183-.188 3.081.001 4.595.095.755.217 1.315.429 1.888.21.566.504 1.132.924 1.899l.004.007z" stroke="#909090" stroke-opacity=".25"/><path d="M139.856 5.617c-.685-.667-3.049-4.01-5.064-4.166-2.014-.156-3.376 1.72-4.206 2.727-.83 1.007-1.661 1.894-2.181 2.575 0 0-5.873 7.727-6.388 8.711-.514.984-3.201 7.538-3.739 9.014-.538 1.476-1.169 4.06-1.48 5-.311.94-.623 5.984-.623 5.984s-.687 6.092-.857 7.044c-.17.953 0 8.787 0 8.787s.268 5.674.857 6.969c.588 1.295 2.458 3.176 3.427 3.787.969.612 4.196 2.014 5.376 2.273 1.179.26 5.829 0 6.543 0 .715 0 5.624-.859 6.388-1.06.764-.202 4.868-1.493 6.077-1.894 1.207-.401 2.854-1.62 4.05-3.106 1.197-1.486 1.089-2.212 1.402-4.015.312-1.802.501-4.65.466-5.378-.035-.727-.466-8.483-.466-8.787v-6.665c0-1.796-.306-4.676-1.079-8.31-.771-3.633-1.785-5.266-2.427-7.219-.642-1.952-2.223-6.038-2.492-6.817-.271-.78-2.727-4.62-3.584-5.454z" fill="#fff"/><path d="M115.318 51.293l-.381.018v-.01l.381-.008zm0 0l-.381.008v-.005l-.001-.017-.001-.066-.005-.25-.017-.902c-.013-.75-.029-1.76-.04-2.8-.011-1.04-.016-2.111-.008-2.983.004-.436.012-.825.023-1.135a6.24 6.24 0 01.055-.703c.083-.462.295-2.207.489-3.857l.255-2.198.08-.702.022-.195.005-.051.001-.008.001-.005.002-.043.011-.163.039-.586c.035-.488.083-1.15.142-1.842.059-.69.128-1.414.202-2.026.071-.596.152-1.127.244-1.405.117-.354.282-.948.472-1.64l.178-.642c.264-.946.56-1.975.834-2.729.272-.746 1.081-2.762 1.884-4.706.8-1.937 1.609-3.842 1.876-4.354.144-.276.629-.971 1.244-1.822a253.27 253.27 0 012.175-2.953 599.147 599.147 0 012.076-2.766l.673-.89.188-.246.049-.065.013-.017.003-.004.001-.001.304.23-.304-.23c.269-.353.615-.755.99-1.186l.13-.149c.341-.392.706-.81 1.07-1.253.056-.067.115-.14.177-.217.388-.477.903-1.113 1.534-1.634.738-.61 1.677-1.102 2.82-1.013.597.046 1.187.324 1.728.686.545.366 1.07.839 1.544 1.317.474.48.904.974 1.255 1.385l.204.24c.256.301.445.524.569.645.24.233.571.654.926 1.143.36.496.759 1.084 1.139 1.67.381.584.743 1.169 1.028 1.658.278.476.503.894.584 1.13.083.24.309.841.598 1.61.599 1.592 1.467 3.905 1.897 5.214.202.615.438 1.186.696 1.813.147.358.302.734.462 1.147a26.696 26.696 0 011.28 4.298c.776 3.65 1.087 6.558 1.087 8.389v6.702l.003.088.014.292.05.962.152 2.835.102 1.855c.073 1.343.133 2.446.145 2.7.037.763-.157 3.641-.472 5.461-.052.297-.093.575-.132.837-.072.49-.136.924-.245 1.324-.178.652-.478 1.251-1.103 2.027-1.227 1.525-2.93 2.798-4.227 3.229-1.208.4-5.323 1.695-6.1 1.9-.402.107-1.84.375-3.246.613-.708.12-1.415.235-1.992.319-.562.082-1.035.141-1.247.141-.16 0-.514.013-.986.03-.574.022-1.321.05-2.103.067a48.76 48.76 0 01-2.042.013c-.611-.013-1.158-.045-1.495-.119-.629-.138-1.762-.567-2.834-1.026-1.076-.46-2.15-.973-2.663-1.296-.524-.33-1.259-.98-1.932-1.7-.67-.717-1.319-1.547-1.639-2.252-.172-.379-.304-1.027-.412-1.736a40.325 40.325 0 01-.27-2.358 81.63 81.63 0 01-.196-2.765c-.004-.08-.008-.141-.009-.184l-.003-.048v-.013l-.001-.003.381-.019z" stroke="#909090" stroke-opacity=".25"/><path d="M90.627 5.617c.686-.667 3.05-4.01 5.063-4.166 2.015-.156 3.377 1.72 4.206 2.727.831 1.007 1.663 1.894 2.182 2.575 0 0 5.873 7.727 6.388 8.711.515.984 3.202 7.538 3.739 9.014.538 1.476 1.169 4.06 1.48 5 .312.94.623 5.984.623 5.984s.688 6.092.858 7.044c.17.953 0 8.787 0 8.787s-.269 5.674-.858 6.969c-.587 1.295-2.458 3.176-3.427 3.787-.969.612-4.196 2.014-5.375 2.273-1.18.26-5.83 0-6.544 0-.714 0-5.624-.859-6.388-1.06-.764-.202-4.868-1.493-6.076-1.894-1.209-.401-2.854-1.62-4.05-3.106-1.197-1.486-1.09-2.212-1.402-4.015-.312-1.802-.502-4.65-.468-5.378.035-.727.468-8.483.468-8.787v-6.665c0-1.796.305-4.676 1.077-8.31.773-3.633 1.786-5.266 2.428-7.219.642-1.952 2.222-6.038 2.493-6.817.27-.78 2.727-4.62 3.583-5.454z" fill="#fff"/><path d="M115.166 51.293l.381.018v-.01l-.381-.008zm0 0l.381.008v-.021l.001-.066.006-.25.017-.902c.013-.75.029-1.76.04-2.8.01-1.04.015-2.111.008-2.983a44.73 44.73 0 00-.023-1.135 6.022 6.022 0 00-.055-.703c-.083-.462-.295-2.207-.489-3.857l-.255-2.198-.08-.702-.022-.195-.005-.051-.002-.008v-.006l-.002-.042-.011-.163-.039-.586c-.035-.488-.083-1.15-.142-1.842a60.641 60.641 0 00-.201-2.026c-.072-.596-.154-1.127-.245-1.405a39.94 39.94 0 01-.473-1.64 68 68 0 00-.178-.642c-.263-.946-.559-1.975-.833-2.729-.272-.746-1.081-2.762-1.884-4.706-.8-1.937-1.609-3.842-1.876-4.354-.144-.276-.629-.971-1.244-1.822a240.65 240.65 0 00-2.175-2.953 596.24 596.24 0 00-2.077-2.766l-.672-.89-.188-.246-.049-.065-.013-.017-.003-.004-.001-.001-.304.23.304-.23a25.699 25.699 0 00-.99-1.186l-.13-.149c-.341-.392-.706-.81-1.07-1.253-.056-.067-.116-.14-.177-.217-.388-.477-.903-1.113-1.534-1.634-.738-.61-1.677-1.102-2.82-1.013-.597.046-1.187.324-1.728.686-.545.366-1.07.839-1.544 1.317-.474.48-.904.974-1.255 1.385l-.204.24c-.256.301-.446.524-.57.645-.24.233-.57.654-.925 1.143-.36.496-.76 1.084-1.139 1.67-.38.584-.743 1.169-1.028 1.658-.278.476-.502.894-.585 1.13-.083.24-.309.841-.597 1.61-.599 1.592-1.467 3.905-1.897 5.214-.202.615-.438 1.186-.695 1.813-.148.358-.303.734-.463 1.147a26.703 26.703 0 00-1.28 4.298c-.776 3.65-1.087 6.558-1.087 8.389v6.702l-.004.088-.014.292a1602.36 1602.36 0 01-.201 3.798l-.102 1.854c-.073 1.343-.133 2.446-.145 2.7-.037.763.157 3.641.473 5.461.05.297.092.575.13.837.072.49.136.924.246 1.324.178.652.478 1.251 1.103 2.027 1.227 1.525 2.93 2.798 4.227 3.229 1.208.4 5.322 1.695 6.1 1.9.402.107 1.84.375 3.246.613.708.12 1.415.235 1.992.319.562.082 1.035.141 1.247.141.16 0 .514.013.986.03.574.022 1.321.05 2.103.067.701.017 1.422.025 2.043.013.61-.013 1.157-.045 1.494-.119.629-.138 1.762-.567 2.835-1.026 1.075-.46 2.149-.973 2.662-1.296.523-.33 1.259-.98 1.932-1.7.67-.717 1.319-1.547 1.639-2.252.172-.379.305-1.027.412-1.736.109-.725.199-1.564.269-2.358.071-.794.124-1.547.158-2.102.018-.277.03-.505.039-.663l.009-.184.002-.048.001-.013v-.003l-.38-.019z" stroke="#909090" stroke-opacity=".25"/><path d="M59.731 16.046c.843-1.558 2.72-3.995 4.463-4.708 1.743-.713 6.14 5.121 7.02 6.338.88 1.217 2.855 4.46 3.513 5.624.658 1.165 2.483 5.562 2.983 7.143.5 1.582 1.074 5.101 1.359 7.305.286 2.204.84 6.85 1.127 8.113.286 1.263 1.16 8.34 1.16 8.34s.662 5.612-.218 8.473c-.881 2.86-2.812 5.287-2.812 5.287s-3.038 4.345-4.798 5.24c-1.76.896-6.398.486-8.293-.33-1.88-.808-5.473-4.102-6.594-5.13l-.026-.023c-1.09-1-5.723-4.396-6.709-6.015-.986-1.619-.553-6.07-.594-7.812-.042-1.742 1.59-14.15 1.673-15.338.082-1.187.571-7.345.836-8.718.265-1.374 1.17-4.25 2.537-7.244 1.418-3.108 2.531-4.988 3.373-6.545zm110.689 0c-.842-1.558-2.719-3.995-4.462-4.708-1.744-.713-6.14 5.121-7.02 6.338-.881 1.217-2.856 4.46-3.513 5.624-.658 1.165-2.483 5.562-2.983 7.143-.501 1.582-1.073 5.101-1.359 7.305-.286 2.204-.841 6.85-1.127 8.113-.286 1.263-1.16 8.34-1.16 8.34s-.663 5.612.218 8.473c.881 2.86 2.812 5.287 2.812 5.287s3.038 4.345 4.797 5.24c1.76.896 6.399.486 8.294-.33 1.88-.808 5.472-4.102 6.593-5.13l.026-.023c1.092-1 5.723-4.396 6.709-6.015.987-1.619.553-6.07.595-7.812.042-1.742-1.591-14.15-1.673-15.338-.082-1.187-.571-7.345-.837-8.718-.264-1.374-1.17-4.25-2.537-7.244-1.417-3.108-2.53-4.988-3.373-6.545z" fill="#fff" stroke="#909090" stroke-opacity=".25"/><path d="M28.288 24.737c.168-.482 2.603-7.658 3.767-8.072 1.164-.414 1.884.974 1.884.974l4.371 6.042s7.108 13.741 7.845 15.602c.736 1.86 4.273 11.797 4.641 12.873.37 1.075.942 5.198 1.011 7.363.07 2.163.644 14.674.644 14.674V86.86s1.314 9.505 1.548 10.813c.234 1.307 2.113 8.869 1.178 9.166-.935.297-7-6.213-8.057-7.509-1.057-1.295-8.489-9.258-9.136-10.229-.648-.97-5.497-8.167-6.486-10.576-.99-2.41-6.928-27.194-7.045-28.599-.118-1.405 0-7.097 0-7.097s.681-8.036.837-8.977c.155-.94 2.83-8.633 2.998-9.115zm174.67 0c-.167-.482-2.602-7.658-3.767-8.072-1.163-.414-1.883.974-1.883.974l-4.372 6.042s-7.107 13.741-7.844 15.602c-.736 1.86-4.273 11.797-4.642 12.873-.369 1.075-.941 5.198-1.011 7.363-.069 2.163-.643 14.674-.643 14.674V86.86s-1.314 9.505-1.548 10.813c-.234 1.307-2.113 8.869-1.178 9.166.934.297 7-6.213 8.057-7.509 1.057-1.295 8.489-9.258 9.136-10.229.647-.97 5.496-8.167 6.486-10.576.99-2.41 6.927-27.194 7.045-28.599.117-1.405 0-7.097 0-7.097s-.682-8.036-.837-8.977c-.156-.94-2.831-8.633-2.999-9.115z" fill="#fff" stroke="#909090" stroke-opacity=".25" stroke-linejoin="round"/><path d="M15.401 52.426c.056-1.117 1.478-5.634 2.961-5.811 1.483-.178 1.788.855 2.71 1.405.924.55 1.264.739 2.017 1.532.753.794 1.51 1.065 2.143 2.108.632 1.043 2.435 6.79 2.914 7.923.478 1.133 1.534 5.899 1.613 6.65.079.752.516 5.14.434 6.293-.082 1.153.075 1.22-.161 2.172-.236.951-.636 2.07-1.115 2.777-.48.706-1.305 2.055-1.722 2.92-.416.866-2.616 3.586-3.286 4.063-.67.477-2.34.91-3.53.604-1.19-.306-1.797-.405-2.331-1.469-.535-1.064-1.558-12.084-1.58-13.592-.02-1.51-.06-2.375-.374-3.205-.315-.83-.631-3.126-.693-4.279-.061-1.153-.055-8.973 0-10.09zm200.114 0c-.056-1.117-1.477-5.634-2.961-5.811-1.483-.178-1.788.855-2.71 1.405-.924.55-1.264.739-2.017 1.532-.753.794-1.511 1.065-2.143 2.108-.632 1.043-2.435 6.79-2.914 7.923-.478 1.133-1.534 5.899-1.613 6.65-.079.752-.516 5.14-.434 6.293.082 1.153-.075 1.22.161 2.172.236.951.636 2.07 1.115 2.777.479.706 1.305 2.055 1.722 2.92.416.866 2.616 3.586 3.286 4.063.671.477 2.34.91 3.53.604 1.19-.306 1.796-.405 2.332-1.469.534-1.064 1.557-12.084 1.578-13.592.022-1.51.06-2.375.375-3.205.315-.83.631-3.126.693-4.279.062-1.153.055-8.973 0-10.09z" fill="#fff" stroke="#919191" stroke-opacity=".25" stroke-linejoin="round"/><path d="M2.383 68.416c.342-.708 2.326-2.43 2.543-2.581.216-.151 2.901.13 3.051.287.15.156 1.886 3.393 1.933 3.563.048.17 2.099 5.641 2.25 5.998.15.356 1.63 6.097 1.63 6.097s1.52 5.044 1.563 5.467c.043.424-.266 3.157-.367 3.37-.1.211-.611 1.18-.9 1.271-.29.092-.947-.21-1.35-.612-.404-.402-.682-1.357-.872-1.884-.19-.527-1.217-1.272-1.954-1.378-.736-.105-2.786-.991-3.039-1.288-.253-.297-5.564-9.633-5.77-10.324-.205-.691-.258-3.01-.155-4.28.103-1.27 1.095-2.998 1.437-3.706z" fill="#fff" stroke="#fff"/><path d="M223.087 67.972c-.468-.632-2.737-1.958-2.978-2.066-.241-.109-2.827.664-2.945.845-.119.182-1.224 3.683-1.239 3.859-.015.176-1.015 5.931-1.097 6.31-.083.377-.471 6.293-.471 6.293s-.558 5.237-.521 5.66c.036.425.846 3.054.985 3.243.139.19.82 1.047 1.121 1.085.301.037.891-.38 1.213-.851.322-.47.417-1.46.507-2.013.089-.553.96-1.475 1.664-1.714.704-.24 2.554-1.49 2.747-1.828.194-.338 3.682-10.494 3.755-11.211.074-.718-.304-3.006-.641-4.235-.337-1.229-1.633-2.744-2.1-3.377z" fill="#fff" stroke="#909090" stroke-opacity=".25"/></g><defs><clipPath id="bva"><path fill="#fff" transform="translate(0 .5)" d="M0 0h228v264H0z"/></clipPath></defs></svg><svg fill="none" viewBox="0 0 24 24" id="telegram" xmlns="http://www.w3.org/2000/svg"><path d="M20.665 3.717l-17.73 6.837c-1.21.486-1.203 1.16-.222 1.462l4.552 1.42L17.797 6.79c.498-.303.953-.14.579.192l-8.533 7.7H9.84l.002.002-.314 4.692c.46 0 .663-.211.92-.46l2.212-2.15 4.599 3.397c.848.467 1.457.227 1.668-.785l3.02-14.228c.309-1.24-.473-1.8-1.282-1.434z" fill="#fff"/></svg><svg fill="none" viewBox="0 0 50 50" id="testing" xmlns="http://www.w3.org/2000/svg"><path d="M5.812 18.601a4.978 4.978 0 007.039 0l9.566-9.566a3.112 3.112 0 00-1.395-5.208 3.111 3.111 0 00-3.007.806l-8.68 8.687L5.314 9.3a3.114 3.114 0 00-4.402 4.402l4.9 4.9zm40.857-3.99H27.225a3.11 3.11 0 100 6.223h19.444a3.11 3.11 0 002.694-4.667 3.11 3.11 0 00-2.694-1.556zm.001-13.222h-14a3.11 3.11 0 100 6.221h14a3.11 3.11 0 100-6.221zM21.781 27.834H3.115a3.11 3.11 0 100 6.222H21.78a3.112 3.112 0 000-6.222zm0 13.221H3.115a3.11 3.11 0 100 6.222H21.78a3.112 3.112 0 000-6.222zm27.508-11.807a3.112 3.112 0 00-4.815-.506l-4.028 4.03-4.03-4.03a3.111 3.111 0 00-4.76.429 3.238 3.238 0 00.49 4.106l3.89 3.889-3.967 3.967a3.154 3.154 0 00-.467 3.95 3.11 3.11 0 004.815.506l4.029-4.028 4.029 4.028a3.112 3.112 0 004.76-.427 3.24 3.24 0 00-.483-4.107l-3.889-3.889L48.83 33.2a3.158 3.158 0 00.459-3.952z" fill="#907F53"/></svg><svg fill="none" viewBox="0 0 50 50" id="testingss" xmlns="http://www.w3.org/2000/svg"><path d="M5.812 18.602a4.978 4.978 0 007.039 0l9.566-9.567a3.112 3.112 0 00-1.395-5.208 3.111 3.111 0 00-3.007.806l-8.68 8.688-4.021-4.022a3.114 3.114 0 00-4.402 4.402l4.9 4.9zm40.857-3.99H27.225a3.11 3.11 0 100 6.222h19.444a3.11 3.11 0 100-6.222zm.001-13.223h-14a3.11 3.11 0 100 6.222h14a3.11 3.11 0 100-6.222zM21.78 27.834H3.112a3.11 3.11 0 100 6.222h18.666a3.112 3.112 0 000-6.222zm0 13.221H3.112a3.11 3.11 0 100 6.222h18.666a3.112 3.112 0 000-6.222zm27.509-11.807a3.112 3.112 0 00-4.815-.505l-4.028 4.029-4.03-4.03a3.111 3.111 0 00-4.76.429 3.238 3.238 0 00.49 4.106l3.89 3.89-3.967 3.966a3.154 3.154 0 00-.467 3.951 3.11 3.11 0 004.815.506l4.029-4.03 4.029 4.03a3.112 3.112 0 004.76-.428 3.24 3.24 0 00-.483-4.107l-3.889-3.889L48.83 33.2a3.158 3.158 0 00.459-3.952z" fill="#907F53"/></svg><svg fill="none" viewBox="0 0 59 45" id="triangle" xmlns="http://www.w3.org/2000/svg"><path d="M3.25 44.417h52.5a2.923 2.923 0 002.4-4.577L31.9 1.924c-1.087-1.572-3.706-1.572-4.797 0L.853 39.84a2.913 2.913 0 002.397 4.577z" fill="#283642"/></svg><svg fill="none" viewBox="0 0 210 50" id="white-logo" xmlns="http://www.w3.org/2000/svg"><g clip-path="url(#caa)" fill="#fff"><path d="M17.186 32.672l-2.184-2.223 14.822-15.087a4.565 4.565 0 011.483-1.008 4.502 4.502 0 013.5 0 4.565 4.565 0 011.482 1.008l2.184 2.223L23.65 32.672a4.531 4.531 0 01-3.232 1.363 4.532 4.532 0 01-3.232-1.363zm16.844.001l-2.185-2.223 14.823-15.087a4.566 4.566 0 011.483-1.008 4.5 4.5 0 013.499 0 4.567 4.567 0 011.483 1.008l2.184 2.223-14.823 15.087a4.531 4.531 0 01-3.232 1.363 4.531 4.531 0 01-3.233-1.363zm16.548-2.183c0 2.512 2 4.548 4.469 4.548 2.468 0 4.469-2.036 4.469-4.548s-2.001-4.549-4.47-4.549c-2.467 0-4.468 2.037-4.468 4.549zm76.323 1.008h-4.117l-4.985-6.328v-.009 6.337h-3.541v-13.9c0-.953.372-1.869 1.035-2.543a3.506 3.506 0 012.5-1.055v9.683l4.72-6.137h4.222l-5.51 6.891 5.676 7.06zm68.2-6.479a3.814 3.814 0 00-1.675-1.28c-.646-.25-1.306-.46-1.977-.629a8.935 8.935 0 01-1.675-.582c-.459-.218-.686-.503-.686-.858a.925.925 0 01.109-.455.898.898 0 01.319-.34 1.884 1.884 0 011.078-.289c.97-.004 1.66.441 2.072 1.336l2.86-1.587a5.31 5.31 0 00-2.052-2.075 5.808 5.808 0 00-2.881-.724c-1.406 0-2.576.377-3.519 1.124-.942.747-1.418 1.773-1.418 3.08 0 .86.231 1.581.689 2.15.442.56 1.02.994 1.677 1.257.646.26 1.306.48 1.977.662a9.765 9.765 0 011.671.59c.464.223.69.512.69.863 0 .755-.598 1.132-1.789 1.132-1.318 0-2.167-.573-2.545-1.719l-2.909 1.666c.97 2.096 2.787 3.144 5.454 3.144 1.482 0 2.728-.37 3.723-1.098.996-.728 1.493-1.777 1.493-3.132 0-.89-.229-1.635-.686-2.236zm-83.138-7.472v3.594c-.804.053-1.562.4-2.135.978a3.422 3.422 0 00-.977 2.166c0 .075-.008.15-.008.231-.002.077.001.154.008.23v6.745h-3.535V17.542h3.536v.866a6.742 6.742 0 013.111-.861zm62.865 5.823a7.015 7.015 0 00-2.181-4.042 6.797 6.797 0 00-4.182-1.776 6.77 6.77 0 00-4.357 1.267 6.977 6.977 0 00-2.629 3.755 7.091 7.091 0 00.246 4.605 6.937 6.937 0 003.014 3.444 6.754 6.754 0 004.466.778 6.823 6.823 0 003.968-2.227l-2.623-2.405c-.382.44-.871.77-1.417.96a3.262 3.262 0 01-1.698.117 3.29 3.29 0 01-1.531-.755 3.37 3.37 0 01-.963-1.428h9.884a6.86 6.86 0 00.091-1.146 7.101 7.101 0 00-.088-1.146zm-9.884 0a3.367 3.367 0 011.214-1.624 3.278 3.278 0 013.823 0c.56.401.984.969 1.214 1.625h-6.251zm-12.886-5.926a6.691 6.691 0 00-3.314.871v-.773h-3.541V35.04h3.541v-4.514a6.69 6.69 0 003.314.87 6.75 6.75 0 002.651-.504 6.845 6.845 0 002.255-1.506 7.002 7.002 0 001.51-2.275 7.088 7.088 0 000-5.383 7.001 7.001 0 00-1.51-2.274 6.844 6.844 0 00-2.255-1.506 6.75 6.75 0 00-2.651-.504zm0 10.362a3.299 3.299 0 01-2.249-.892 3.414 3.414 0 01-1.079-2.494c0-.098 0-.196.014-.289.055-.655.296-1.28.694-1.799a3.332 3.332 0 011.547-1.12 3.274 3.274 0 011.898-.077 3.32 3.32 0 011.63.992 3.442 3.442 0 01.594 3.655 3.367 3.367 0 01-1.229 1.474c-.541.36-1.174.55-1.82.55zM99.465 17.542v.871a6.76 6.76 0 00-6.795.103 6.92 6.92 0 00-2.468 2.549 7.073 7.073 0 00-.901 3.458c0 1.213.31 2.405.901 3.458a6.92 6.92 0 002.468 2.55 6.76 6.76 0 006.795.102v.86H103v-13.95h-3.536zm-3.318 10.367a3.285 3.285 0 01-1.825-.554 3.372 3.372 0 01-1.228-1.482 3.442 3.442 0 01-.228-1.925 3.41 3.41 0 01.847-1.736 3.316 3.316 0 011.644-.98 3.272 3.272 0 011.902.1 3.33 3.33 0 011.537 1.144 3.43 3.43 0 01.669 1.815c0 .077.008.152.008.231a3.41 3.41 0 01-1.056 2.474 3.295 3.295 0 01-2.27.913zm46.756-10.367V31.5h-3.536v-.866a6.765 6.765 0 01-3.414.87 6.773 6.773 0 01-3.388-.967 6.93 6.93 0 01-2.471-2.55 7.083 7.083 0 01-.903-3.462v-6.983h3.54v6.745c0 .076-.009.151-.009.232 0 .08 0 .154.009.23A3.41 3.41 0 00133.774 27c.617.589 1.43.916 2.275.916s1.658-.327 2.275-.916a3.41 3.41 0 001.043-2.251c.007-.077.01-.154.009-.23 0-.081 0-.156-.009-.232v-6.745h3.536z"/><path d="M132.732 24.287v.462c0-.076-.009-.151-.009-.23 0-.08.005-.156.009-.232zm51.134-6.74v3.594a3.3 3.3 0 00-2.139.975 3.416 3.416 0 00-.975 2.169c0 .075-.012.15-.012.231-.002.077.002.154.012.23v6.745h-3.533V17.542h3.539v.866a6.717 6.717 0 013.108-.861zm-96.87 5.723v8.242h-3.54v-8.029c0-.067.011-.137.011-.212 0-.076-.008-.143-.012-.214a2.126 2.126 0 00-.691-1.376 2.054 2.054 0 00-1.427-.529 2.058 2.058 0 00-1.399.602 2.13 2.13 0 00-.622 1.596v8.162h-3.53v-8.029a1.098 1.098 0 000-.133.55.55 0 000-.08.57.57 0 000-.08 1.14 1.14 0 000-.136 2.13 2.13 0 00-.676-1.354 2.06 2.06 0 00-1.393-.545 2.06 2.06 0 00-1.393.545c-.382.35-.623.833-.677 1.354 0 .072-.012.139-.012.214 0 .075.009.146.012.213v8.016h-3.545v-8.226a5.782 5.782 0 01.97-3.204 5.63 5.63 0 012.57-2.098 5.508 5.508 0 014.623.223 5.668 5.668 0 011.283.919c.124-.126.262-.235.398-.346a5.657 5.657 0 011.37-.796 5.508 5.508 0 014.14 0 5.63 5.63 0 012.57 2.097c.63.946.969 2.062.97 3.205z"/></g><defs><clipPath id="caa"><path fill="#fff" transform="translate(15 14)" d="M0 0h181v21H0z"/></clipPath></defs></svg><svg fill="none" viewBox="0 0 50 50" id="wireframes" xmlns="http://www.w3.org/2000/svg"><g clip-path="url(#cba)"><path d="M43.983 19.398V43.94a5.7 5.7 0 01-5.694 5.694H6.022A5.7 5.7 0 01.328 43.94V11.673a5.7 5.7 0 015.694-5.694h24.542L19.73 16.812a5.659 5.659 0 00-1.556 2.909l-1.342 6.706a5.695 5.695 0 006.7 6.703l6.708-1.341a5.67 5.67 0 002.91-1.558l10.833-10.833zm-21.196 10.01l6.71-1.342c.367-.073.704-.254.969-.519L47.914 10.1a5.692 5.692 0 000-8.052 5.828 5.828 0 00-8.052 0L22.414 19.496a1.9 1.9 0 00-.519.97l-1.342 6.71v-.001a1.898 1.898 0 002.234 2.233z" fill="#907F53"/></g><defs><clipPath id="cba"><path fill="#fff" d="M0 0h50v50H0z"/></clipPath></defs></svg><svg fill="none" viewBox="0 0 20 20" id="youtube" xmlns="http://www.w3.org/2000/svg"><g clip-path="url(#cca)"><path d="M19.584 5.423a2.321 2.321 0 00-.639-1.058 2.542 2.542 0 00-1.114-.618c-1.566-.413-7.835-.413-7.835-.413a63.852 63.852 0 00-7.825.392 2.633 2.633 0 00-1.115.633 2.414 2.414 0 00-.649 1.064A24.242 24.242 0 00.001 10c-.01 1.534.125 3.067.406 4.578.114.4.337.763.646 1.058.31.294.694.506 1.118.619 1.585.412 7.825.412 7.825.412 2.617.03 5.233-.101 7.835-.392a2.543 2.543 0 001.114-.618c.305-.289.525-.655.638-1.059.288-1.509.427-3.043.418-4.579a22.147 22.147 0 00-.417-4.597zM8.002 12.854V7.148l5.217 2.854-5.217 2.852z" fill="#fff"/></g><defs><clipPath id="cca"><path fill="#fff" d="M0 0h20v20H0z"/></clipPath></defs></svg></svg>