<svg width="50" height="50" viewBox="0 0 50 50" fill="none" xmlns="http://www.w3.org/2000/svg">
<path d="M36.0976 1.25H14.4744C12.0033 1.25 10 3.25304 10 5.72438V45.261C10 47.7321 12.003 49.7354 14.4744 49.7354H36.0976C38.5672 49.7354 40.5703 47.7323 40.5703 45.261V5.72438C40.5703 3.25295 38.5672 1.25 36.0976 1.25ZM25.2851 47.8679C23.9458 47.8679 22.8625 46.7846 22.8625 45.4467C22.8625 44.1056 23.9458 43.021 25.2851 43.021C26.6244 43.021 27.7077 44.1056 27.7077 45.4467C27.7077 46.7846 26.6244 47.8679 25.2851 47.8679ZM37.4021 38.5482C37.4021 39.7832 36.4004 40.7859 35.1644 40.7859L15.4054 40.7862C14.1704 40.7862 13.1678 39.7845 13.1678 38.5486V6.85928C13.1678 5.62428 14.1695 4.62294 15.4054 4.62294H35.1644C36.3994 4.62294 37.4021 5.62285 37.4021 6.85928V38.5482Z" fill="#907F53"/>
<path d="M21.3019 9.09766H18.9686C17.6823 9.09766 16.6367 10.1415 16.6367 11.4295V13.7645C16.6367 15.0526 17.6823 16.0964 18.9686 16.0964H21.3019C22.5927 16.0964 23.6352 15.0526 23.6352 13.7645V11.4295C23.6352 10.1415 22.5927 9.09766 21.3019 9.09766Z" fill="#907F53"/>
<path d="M31.6027 9.09766H29.2694C27.9831 9.09766 26.9375 10.1415 26.9375 11.4295V13.7645C26.9375 15.0526 27.9831 16.0964 29.2694 16.0964H31.6027C32.8921 16.0964 33.9346 15.0526 33.9346 13.7645V11.4295C33.9346 10.1415 32.8921 9.09766 31.6027 9.09766Z" fill="#907F53"/>
<path d="M21.3019 19.207H18.9686C17.6823 19.207 16.6367 20.2509 16.6367 21.5389V23.8735C16.6367 25.1598 17.6823 26.2054 18.9686 26.2054H21.3019C22.5927 26.2054 23.6352 25.1598 23.6352 23.8735V21.5389C23.6352 20.2509 22.5927 19.207 21.3019 19.207Z" fill="#907F53"/>
<path d="M31.6027 19.207H29.2694C27.9831 19.207 26.9375 20.2509 26.9375 21.5389V23.8735C26.9375 25.1598 27.9831 26.2054 29.2694 26.2054H31.6027C32.8921 26.2054 33.9346 25.1598 33.9346 23.8735V21.5389C33.9346 20.2509 32.8921 19.207 31.6027 19.207Z" fill="#907F53"/>
<path d="M21.3019 29.3164H18.9686C17.6823 29.3164 16.6367 30.3602 16.6367 31.6483V33.9802C16.6367 35.271 17.6823 36.3148 18.9686 36.3148H21.3019C22.5927 36.3148 23.6352 35.271 23.6352 33.9802V31.6483C23.6352 30.3617 22.5927 29.3164 21.3019 29.3164Z" fill="#907F53"/>
<path d="M31.6027 29.3164H29.2694C27.9831 29.3164 26.9375 30.3602 26.9375 31.6483V33.9802C26.9375 35.271 27.9831 36.3148 29.2694 36.3148H31.6027C32.8921 36.3148 33.9346 35.271 33.9346 33.9802V31.6483C33.9346 30.3617 32.8921 29.3164 31.6027 29.3164Z" fill="#907F53"/>
</svg>
