<svg width="50" height="40" viewBox="0 0 50 40" fill="none" xmlns="http://www.w3.org/2000/svg">
<path fill-rule="evenodd" clip-rule="evenodd" d="M30.2803 0.815934C31.7343 1.30046 32.4611 2.51218 32.4611 3.96613L23.2532 37.8892C22.7687 38.8582 21.7993 39.5855 20.8302 39.5855H20.1034C18.6495 39.1009 17.9227 37.8892 18.165 36.4353L27.3729 2.51218C27.6147 1.30045 29.0687 0.573722 30.2804 0.815934H30.2803ZM39.0033 8.81209L48.6956 18.5044C49.6646 19.4734 49.6646 20.9274 48.6956 21.8968L39.0033 31.5891C38.5188 32.0736 37.7916 32.3159 37.307 32.3159C36.8225 32.3159 36.0953 32.0736 35.6108 31.5891C34.6418 30.6201 34.6418 29.1661 35.6108 28.1967L43.6069 20.2005L35.6108 12.2044C34.6418 11.2354 34.6418 9.78141 35.6108 8.81199C36.5802 7.84295 38.0338 7.84295 39.0032 8.81199L39.0033 8.81209ZM14.7725 8.81209C15.7416 9.78113 15.7416 11.2351 14.7725 12.2045L6.77637 20.2006L14.7725 28.1968C15.7416 29.1658 15.7416 30.6198 14.7725 31.5892C14.288 32.0737 13.8035 32.316 13.0763 32.316C12.3495 32.316 11.8645 32.0737 11.38 31.5892L1.68772 21.8969C0.718678 20.9279 0.718678 19.4739 1.68772 18.5045L11.38 8.81218C12.3494 7.84315 13.803 7.84315 14.7724 8.81218L14.7725 8.81209Z" fill="#907F53"/>
</svg>
