<svg width="50" height="50" viewBox="0 0 50 50" fill="none" xmlns="http://www.w3.org/2000/svg">
<path d="M12.261 9.03283C12.261 9.92344 11.5391 10.6457 10.6481 10.6457C9.75745 10.6457 9.03516 9.92344 9.03516 9.03283C9.03516 8.14177 9.75745 7.41992 10.6481 7.41992C11.5391 7.41992 12.261 8.14177 12.261 9.03283Z" fill="#907F53"/>
<path d="M46.4519 5.19415C46.4519 3.21984 44.8453 1.61373 42.8715 1.61373L6.80698 1.61328C4.83267 1.61328 3.22656 3.21985 3.22656 5.19416V12.8654C3.22656 14.8397 4.83313 16.4458 6.80698 16.4458H42.8646C44.8389 16.4458 46.445 14.8392 46.445 12.8654L46.4454 5.19416L46.4519 5.19415ZM10.6455 11.9361C9.04557 11.9361 7.74235 10.6329 7.74235 9.03297C7.74235 7.43309 9.04557 6.12986 10.6455 6.12986C12.2453 6.12986 13.5486 7.43309 13.5486 9.03297C13.5486 10.6329 12.2457 11.9361 10.6455 11.9361ZM35.4842 11.2907C35.4842 11.6454 35.1939 11.9361 34.8388 11.9361C34.4842 11.9361 34.1935 11.6458 34.1935 11.2907V6.77472C34.1935 6.4201 34.4837 6.12938 34.8388 6.12938C35.1934 6.12938 35.4842 6.41964 35.4842 6.77472V11.2907ZM40.6456 11.2907C40.6456 11.6454 40.3553 11.9361 40.0002 11.9361C39.6456 11.9361 39.3549 11.6458 39.3549 11.2907V6.77472C39.3549 6.4201 39.6451 6.12938 40.0002 6.12938C40.3548 6.12938 40.6456 6.41964 40.6456 6.77472V11.2907Z" fill="#907F53"/>
<path d="M12.261 25.1617C12.261 26.0523 11.5391 26.7746 10.6481 26.7746C9.75745 26.7746 9.03516 26.0523 9.03516 25.1617C9.03516 24.2707 9.75745 23.5488 10.6481 23.5488C11.5391 23.5488 12.261 24.2707 12.261 25.1617Z" fill="#907F53"/>
<path d="M42.8715 17.7422H6.80698C4.83267 17.7422 3.22656 19.3488 3.22656 21.3231V28.9943C3.22656 30.9686 4.83313 32.5747 6.80698 32.5747H42.8646C44.8389 32.5747 46.445 30.9681 46.445 28.9943L46.4454 21.3231C46.4517 19.3488 44.8451 17.7422 42.8714 17.7422H42.8715ZM10.6457 28.065C9.0458 28.065 7.74258 26.7618 7.74258 25.1619C7.74258 23.562 9.0458 22.2588 10.6457 22.2588C12.2456 22.2588 13.5488 23.562 13.5488 25.1619C13.5488 26.7618 12.2459 28.065 10.6457 28.065ZM35.4844 27.4197C35.4844 27.7743 35.1941 28.065 34.8391 28.065C34.4844 28.065 34.1937 27.7747 34.1937 27.4197V22.9036C34.1937 22.549 34.484 22.2583 34.8391 22.2583C35.1937 22.2583 35.4844 22.5486 35.4844 22.9036V27.4197ZM40.6458 27.4197C40.6458 27.7743 40.3555 28.065 40.0005 28.065C39.6458 28.065 39.3551 27.7747 39.3551 27.4197V22.9036C39.3551 22.549 39.6454 22.2583 40.0005 22.2583C40.3551 22.2583 40.6458 22.5486 40.6458 22.9036V27.4197Z" fill="#907F53"/>
<path d="M12.261 41.2906C12.261 42.1812 11.5391 42.9035 10.6481 42.9035C9.75745 42.9035 9.03516 42.1812 9.03516 41.2906C9.03516 40.3996 9.75745 39.6777 10.6481 39.6777C11.5391 39.6777 12.261 40.3996 12.261 41.2906Z" fill="#907F53"/>
<path d="M46.4519 45.1295V37.452C46.4519 35.4777 44.8453 33.8715 42.8715 33.8715L6.80698 33.8711C4.83267 33.8711 3.22656 35.4777 3.22656 37.452V45.1232C3.22656 47.0975 4.83313 48.7036 6.80698 48.7036H42.8646C44.8451 48.7099 46.4518 47.1037 46.4518 45.1295L46.4519 45.1295ZM10.6455 44.1939C9.04557 44.1939 7.74235 42.8907 7.74235 41.2908C7.74235 39.6909 9.04557 38.3877 10.6455 38.3877C12.2453 38.3877 13.5486 39.6909 13.5486 41.2908C13.5486 42.8907 12.2457 44.1939 10.6455 44.1939ZM35.4842 43.5485C35.4842 43.9032 35.1939 44.1939 34.8388 44.1939C34.4842 44.1939 34.1935 43.9036 34.1935 43.5485V39.0325C34.1935 38.6779 34.4837 38.3872 34.8388 38.3872C35.1934 38.3872 35.4842 38.6774 35.4842 39.0325V43.5485ZM40.6456 43.5485C40.6456 43.9032 40.3553 44.1939 40.0002 44.1939C39.6456 44.1939 39.3549 43.9036 39.3549 43.5485V39.0325C39.3549 38.6779 39.6451 38.3872 40.0002 38.3872C40.3548 38.3872 40.6456 38.6774 40.6456 39.0325V43.5485Z" fill="#907F53"/>
</svg>
