<svg viewBox="0 0 69 34" xmlns="http://www.w3.org/2000/svg">
<path d="M68.4075 17.0001C68.4046 20.2429 67.4408 23.4121 65.6379 26.1074C63.835 28.8027 61.2737 30.9033 58.2777 32.1439C55.2816 33.3845 51.9851 33.7093 48.8045 33.0775C45.6239 32.4457 42.7019 30.8854 40.4075 28.5939L40.2707 28.4572L23.8918 9.97279C22.5077 8.6151 20.7535 7.69639 18.8492 7.33189C16.945 6.9674 14.9755 7.17337 13.1878 7.92395C11.4002 8.67453 9.87399 9.9363 8.80072 11.551C7.72745 13.1656 7.1549 15.0613 7.1549 17.0001C7.1549 18.939 7.72745 20.8346 8.80072 22.4493C9.87399 24.064 11.4002 25.3257 13.1878 26.0763C14.9755 26.8269 16.945 27.0329 18.8492 26.6684C20.7535 26.3039 22.5077 25.3852 23.8918 24.0275L24.7395 23.0704C25.316 22.4178 26.1282 22.0208 26.9974 21.967C27.8666 21.9132 28.7216 22.2068 29.3743 22.7833C30.0269 23.3599 30.4239 24.1721 30.4777 25.0413C30.5315 25.9104 30.2379 26.7654 29.6614 27.4181L28.7317 28.4572L28.595 28.5939C27.0736 30.1184 25.2665 31.328 23.2771 32.1532C21.2876 32.9785 19.155 33.4033 17.0012 33.4033C14.8474 33.4033 12.7148 32.9785 10.7254 32.1532C8.73594 31.328 6.92882 30.1184 5.40745 28.5939C3.11591 26.2995 1.55568 23.3775 0.923836 20.1969C0.29199 17.0163 0.616863 13.7197 1.85742 10.7237C3.09799 7.72761 5.19859 5.16636 7.89393 3.36342C10.5893 1.56049 13.7585 0.596733 17.0012 0.593881C19.1566 0.585232 21.292 1.00638 23.2827 1.8327C25.2733 2.65902 27.0793 3.87392 28.595 5.40638L28.7317 5.5431L45.1106 24.0275C46.4947 25.3852 48.2489 26.3039 50.1532 26.6684C52.0574 27.0329 54.0269 26.8269 55.8146 26.0763C57.6022 25.3257 59.1284 24.064 60.2017 22.4493C61.275 20.8346 61.8475 18.939 61.8475 17.0001C61.8475 15.0613 61.275 13.1656 60.2017 11.551C59.1284 9.9363 57.6022 8.67453 55.8146 7.92395C54.0269 7.17337 52.0574 6.9674 50.1532 7.33189C48.2489 7.69639 46.4947 8.6151 45.1106 9.97279L44.2629 10.9298C43.6864 11.5825 42.8742 11.9794 42.005 12.0333C41.1358 12.0871 40.2808 11.7935 39.6282 11.2169C38.9755 10.6404 38.5786 9.82819 38.5247 8.95901C38.4709 8.08982 38.7645 7.23484 39.341 6.58216L40.2707 5.5431L40.4075 5.40638C42.7019 3.11483 45.6239 1.55461 48.8045 0.922764C51.9851 0.290918 55.2816 0.615792 58.2777 1.85635C61.2737 3.09691 63.835 5.19752 65.6379 7.89286C67.4408 10.5882 68.4046 13.7574 68.4075 17.0001Z"/>
</svg>
