<svg width="71" height="70" viewBox="0 0 71 70" fill="none" xmlns="http://www.w3.org/2000/svg">
<path d="M59.0858 4H13.9144C9.82143 4 6.5 7.32143 6.5 11.4144V17.9286H66.5V11.4144C66.5 7.32143 63.1786 4 59.0856 4H59.0858ZM16.143 15.25C14.9644 15.25 13.9786 14.2857 13.9786 13.1071C13.9786 11.9286 14.9429 10.9643 16.1214 10.9643H16.143C17.3215 10.9643 18.2858 11.9286 18.2858 13.1071C18.2858 14.2857 17.3215 15.25 16.143 15.25H16.143ZM23.5999 15.25C22.4213 15.25 21.4355 14.2857 21.4355 13.1071C21.4355 11.9286 22.3998 10.9643 23.5783 10.9643H23.5998C24.7784 10.9643 25.7427 11.9286 25.7427 13.1071C25.7427 14.2857 24.7789 15.25 23.5998 15.25H23.5999ZM31.0573 15.25C29.8787 15.25 28.8929 14.2857 28.8929 13.1071C28.8929 11.9286 29.8571 10.9643 31.0357 10.9643H31.0572C32.2358 10.9643 33.2001 11.9286 33.2001 13.1071C33.2001 14.2857 32.2358 15.25 31.0572 15.25H31.0573Z" fill="#283642"/>
<path d="M33.4153 39.1857L26.858 34.8354L20.3008 39.1857V47.5213H33.4151L33.4153 39.1857Z" fill="#283642"/>
<path d="M6.5 56.5858C6.5 60.6788 9.82143 64.0002 13.9144 64.0002H59.0858C63.1788 64.0002 66.5002 60.6788 66.5002 56.5858V22.2144H6.50024L6.5 56.5858ZM44.5351 30.1221H57.3922C58.5708 30.1221 59.5351 31.0649 59.5351 32.265C59.5351 33.4435 58.5708 34.4078 57.3922 34.4078H44.5351C43.3565 34.4078 42.3922 33.4435 42.3922 32.265C42.3922 31.0649 43.3565 30.1221 44.5351 30.1221ZM44.5351 38.8222H57.3922C58.5708 38.8222 59.5351 39.7865 59.5351 40.9651C59.5351 42.1437 58.5708 43.1079 57.3922 43.1079H44.5351C43.3565 43.1079 42.3922 42.1437 42.3922 40.9651C42.3922 39.7865 43.3565 38.8222 44.5351 38.8222ZM44.5351 47.5224H50.9637C52.1422 47.5224 53.1065 48.4866 53.1065 49.6652C53.1065 50.8653 52.1422 51.8081 50.9637 51.8081H44.5351C43.3565 51.8081 42.3922 50.8653 42.3922 49.6652C42.3922 48.4866 43.3565 47.5224 44.5351 47.5224ZM14.9637 37.5796L25.678 30.4651C26.3744 30.0552 27.2803 30.0131 27.992 30.4436C27.992 30.4651 28.0135 30.4651 28.0346 30.4651L38.7489 37.5796C39.7347 38.2225 40.013 39.5513 39.3491 40.5365C38.9636 41.1363 38.3418 41.4367 37.6989 41.4793V49.6652C37.6989 50.8653 36.7346 51.8081 35.556 51.8081H18.156C16.9775 51.8081 16.0132 50.8653 16.0132 49.6652V41.4793C15.3703 41.4362 14.749 41.1363 14.3629 40.5365C13.699 39.5507 13.9774 38.222 14.9632 37.5796H14.9637Z" fill="#283642"/>
</svg>
