<svg width="181" height="22" viewBox="0 0 181 22" fill="none" xmlns="http://www.w3.org/2000/svg">
<g clip-path="url(#clip0_1039_1027)">
<path d="M2.18555 19.1725L0.00148268 16.9495L14.8243 1.86286C15.2488 1.43081 15.7527 1.0881 16.3074 0.85428C16.862 0.62046 17.4564 0.500114 18.0567 0.500114C18.657 0.500114 19.2515 0.620458 19.8061 0.854279C20.3607 1.0881 20.8647 1.43081 21.2891 1.86286L23.4732 4.0858L8.65039 19.1725C7.7931 20.045 6.63036 20.5352 5.41797 20.5352C4.20558 20.5352 3.04284 20.045 2.18555 19.1725Z" fill="#F15A25"/>
<path d="M19.0293 19.1734L16.8452 16.9505L31.6681 1.86383C32.0925 1.43179 32.5965 1.08908 33.1511 0.855257C33.7057 0.621437 34.3002 0.501091 34.9005 0.501091C35.5008 0.501091 36.0952 0.621435 36.6499 0.855256C37.2045 1.08908 37.7084 1.43179 38.1329 1.86383L40.317 4.08677L25.4941 19.1734C24.6368 20.046 23.4741 20.5362 22.2617 20.5362C21.0493 20.5362 19.8866 20.046 19.0293 19.1734Z" fill="#F15A25"/>
<path d="M35.5781 16.9893C35.5781 19.5012 37.5788 21.5376 40.0468 21.5376C42.5149 21.5376 44.5156 19.5012 44.5156 16.9893C44.5156 14.4773 42.5149 12.441 40.0468 12.441C37.5788 12.441 35.5781 14.4773 35.5781 16.9893Z" fill="#F15A25"/>
<path d="M111.901 17.9979H107.784L102.799 11.6702V11.6614V17.9979H99.2578V4.09892C99.2578 3.14465 99.6302 2.22944 100.293 1.55454C100.956 0.879652 101.855 0.500333 102.793 0.5V0.5V10.1826L107.513 4.04611H111.735L106.225 10.9371L111.901 17.9979Z" fill="#283642"/>
<path d="M180.101 11.5194C179.671 10.9416 179.091 10.4981 178.426 10.2393C177.78 9.98925 177.12 9.77928 176.449 9.61055C175.873 9.4726 175.312 9.27759 174.774 9.02833C174.315 8.81079 174.088 8.52534 174.088 8.17073C174.085 8.01174 174.122 7.85461 174.197 7.71512C174.272 7.57562 174.382 7.45867 174.516 7.376C174.839 7.17266 175.214 7.07197 175.594 7.08677C176.564 7.08258 177.254 7.52773 177.666 8.42222L180.526 6.83528C180.046 5.96224 179.335 5.24351 178.474 4.76043C177.59 4.27263 176.598 4.02328 175.593 4.03612C174.187 4.03612 173.017 4.41336 172.074 5.16031C171.132 5.90725 170.656 6.93336 170.656 8.23989C170.656 9.10127 170.887 9.82181 171.345 10.3902C171.787 10.9506 172.365 11.384 173.022 11.6477C173.668 11.9069 174.328 12.1277 174.999 12.3091C175.572 12.4548 176.132 12.6526 176.67 12.9001C177.134 13.1227 177.36 13.4119 177.36 13.7628C177.36 14.5173 176.762 14.8945 175.571 14.8945C174.253 14.8945 173.404 14.3215 173.026 13.1755L170.117 14.8417C171.087 16.9375 172.904 17.9854 175.571 17.9854C177.053 17.9854 178.299 17.6157 179.294 16.8876C180.29 16.1595 180.787 15.1108 180.787 13.7552C180.787 12.8658 180.558 12.1205 180.101 11.5194Z" fill="#283642"/>
<path d="M96.9634 4.04751V7.6414C96.159 7.69427 95.4006 8.04179 94.8285 8.61971C94.2564 9.19762 93.9092 9.96684 93.8512 10.7851C93.8512 10.8606 93.8425 10.936 93.8425 11.0165C93.8411 11.0933 93.844 11.1701 93.8512 11.2466V17.9918H90.3164V4.04248H93.8524V4.90889C94.807 4.37315 95.8737 4.07779 96.9634 4.04751Z" fill="#283642"/>
<path d="M159.828 9.87095C159.572 8.31083 158.803 6.8854 157.647 5.82827C156.491 4.77113 155.016 4.145 153.465 4.05248C151.914 3.95996 150.377 4.40655 149.108 5.31904C147.839 6.23154 146.912 7.55582 146.479 9.07487C146.046 10.5939 146.132 12.2176 146.725 13.6799C147.317 15.1422 148.38 16.3563 149.739 17.1232C151.098 17.8902 152.673 18.1645 154.205 17.9013C155.738 17.638 157.137 16.8528 158.173 15.6742L155.55 13.2699C155.168 13.7096 154.679 14.0401 154.133 14.2288C153.587 14.4176 153.002 14.4582 152.435 14.3464C151.869 14.2347 151.341 13.9746 150.904 13.5917C150.466 13.2089 150.134 12.7166 149.941 12.1634H159.825C159.865 11.9283 159.891 11.6911 159.904 11.4529C159.913 11.3145 159.916 11.1636 159.916 11.0178C159.918 10.6337 159.888 10.2501 159.828 9.87095ZM149.944 9.87095C150.174 9.21506 150.598 8.64771 151.158 8.24658C151.717 7.84545 152.385 7.63015 153.069 7.63015C153.754 7.63015 154.421 7.84545 154.981 8.24658C155.541 8.64771 155.965 9.21506 156.195 9.87095H149.944Z" fill="#283642"/>
<path d="M137.058 3.94448C135.898 3.94201 134.757 4.24204 133.744 4.81591V4.04256H130.203V21.5405H133.744V17.0261C134.757 17.5996 135.898 17.8992 137.058 17.8963C137.965 17.9087 138.867 17.7374 139.709 17.3924C140.551 17.0474 141.318 16.5355 141.964 15.8865C142.61 15.2375 143.123 14.4643 143.474 13.6118C143.824 12.7593 144.004 11.8444 144.004 10.9204C144.004 9.99632 143.824 9.08148 143.474 8.22895C143.123 7.37643 142.61 6.60322 141.964 5.95422C141.318 5.30522 140.551 4.79335 139.709 4.44835C138.867 4.10334 137.965 3.93207 137.058 3.94448ZM137.058 14.3062C136.225 14.3055 135.423 13.9872 134.809 13.4141C134.196 12.841 133.816 12.0546 133.744 11.2102C133.735 11.1159 133.73 11.0191 133.73 10.921C133.73 10.8229 133.73 10.7248 133.744 10.6318C133.799 9.97622 134.04 9.35106 134.438 8.83264C134.836 8.31422 135.374 7.92497 135.985 7.71244C136.597 7.49991 137.256 7.47329 137.883 7.63583C138.509 7.79837 139.076 8.14304 139.513 8.62774C139.95 9.11244 140.239 9.7162 140.344 10.3653C140.45 11.0144 140.367 11.6807 140.107 12.2829C139.847 12.8851 139.42 13.3971 138.878 13.7564C138.337 14.1157 137.704 14.3067 137.058 14.3062Z" fill="#283642"/>
<path d="M84.4648 4.04248V4.91392C83.4211 4.32827 82.2455 4.0297 81.0539 4.04765C79.8623 4.06559 78.6958 4.39945 77.6697 5.01626C76.6435 5.63308 75.7931 6.51155 75.2023 7.56499C74.6115 8.61843 74.3008 9.81044 74.3008 11.0234C74.3008 12.2364 74.6115 13.4284 75.2023 14.4818C75.7931 15.5353 76.6435 16.4137 77.6697 17.0306C78.6958 17.6474 79.8623 17.9812 81.0539 17.9992C82.2455 18.0171 83.4211 17.7185 84.4648 17.1329V17.9943H88.0008V4.04248H84.4648ZM81.1475 14.4092C80.499 14.4096 79.8646 14.2172 79.3222 13.8555C78.7797 13.4938 78.3529 12.9787 78.0943 12.3735C77.8357 11.7682 77.7564 11.0993 77.8663 10.4488C77.9762 9.79837 78.2705 9.19478 78.7129 8.71227C79.1554 8.22975 79.7267 7.88934 80.3567 7.73289C80.9867 7.57644 81.6478 7.61077 82.2589 7.83165C82.87 8.05254 83.4043 8.45035 83.7962 8.97618C84.1881 9.50201 84.4205 10.1329 84.4648 10.7914C84.4648 10.8681 84.4734 10.9436 84.4734 11.0228C84.4749 11.1 84.472 11.1773 84.4648 11.2542C84.4072 12.1099 84.0328 12.9114 83.417 13.4971C82.8013 14.0827 81.9902 14.4086 81.1475 14.4092Z" fill="#283642"/>
<path d="M127.903 4.04248V18.0006H124.367V17.1342C123.323 17.7214 122.146 18.0214 120.953 18.0044C119.761 17.9873 118.593 17.6539 117.565 17.0371C116.538 16.4202 115.686 15.5412 115.094 14.4869C114.503 13.4326 114.191 12.2395 114.191 11.0253V4.04248H117.731V10.7876C117.731 10.8631 117.722 10.9385 117.722 11.019C117.722 11.0995 117.722 11.1737 117.731 11.2491C117.785 12.1074 118.158 12.9125 118.774 13.5009C119.391 14.0893 120.204 14.4168 121.049 14.4168C121.894 14.4168 122.707 14.0893 123.324 13.5009C123.94 12.9125 124.313 12.1074 124.367 11.2491C124.374 11.1727 124.377 11.0958 124.376 11.019C124.376 10.9385 124.376 10.8631 124.367 10.7876V4.04248H127.903Z" fill="#283642"/>
<path d="M117.732 10.7876V11.2491C117.732 11.1736 117.723 11.0982 117.723 11.019C117.723 10.9398 117.728 10.863 117.732 10.7876Z" fill="#283642"/>
<path d="M168.866 4.04751V7.6414C168.06 7.69163 167.3 8.03826 166.727 8.61667C166.155 9.19509 165.808 9.9658 165.752 10.7851C165.752 10.8606 165.74 10.936 165.74 11.0165C165.738 11.0934 165.742 11.1704 165.752 11.2466V17.9918H162.219V4.04248H165.758V4.90889C166.712 4.37282 167.777 4.07741 168.866 4.04751Z" fill="#283642"/>
<path d="M71.996 9.77012V18.0117H68.4551V9.98263C68.4551 9.91598 68.4674 9.84556 68.4674 9.77012C68.4674 9.69467 68.4588 9.62802 68.4551 9.55634C68.4036 9.02526 68.1566 8.53367 67.7637 8.18035C67.3707 7.82702 66.861 7.63816 66.3368 7.65169C65.8126 7.66523 65.3129 7.88017 64.9381 8.25331C64.5633 8.62646 64.3411 9.13017 64.3162 9.66323C64.3143 9.66737 64.3133 9.67187 64.3133 9.67643C64.3133 9.68099 64.3143 9.6855 64.3162 9.68964C64.3143 9.71643 64.3143 9.74332 64.3162 9.77012C64.3143 9.79649 64.3143 9.82296 64.3162 9.84934C64.3162 9.86317 64.3162 9.87197 64.3162 9.877V18.0117H60.7863V9.98263C60.789 9.93824 60.789 9.89373 60.7863 9.84934C60.7882 9.82296 60.7882 9.79649 60.7863 9.77012C60.7882 9.74332 60.7882 9.71643 60.7863 9.68964C60.789 9.64441 60.789 9.59906 60.7863 9.55383C60.7332 9.03286 60.4923 8.55041 60.1101 8.19969C59.7279 7.84897 59.2315 7.65486 58.7169 7.65486C58.2023 7.65486 57.7059 7.84897 57.3237 8.19969C56.9415 8.55041 56.7006 9.03286 56.6474 9.55383C56.6474 9.6255 56.6351 9.69215 56.6351 9.7676C56.6351 9.84305 56.6437 9.91347 56.6474 9.98012V17.9966H53.1016V9.77012C53.1026 8.6274 53.4406 7.51129 54.0716 6.56615C54.7026 5.62101 55.5978 4.89031 56.6413 4.46856C57.9702 3.9304 59.4512 3.9304 60.7802 4.46856C60.9457 4.53521 61.1076 4.61065 61.2645 4.69113C61.577 4.85394 61.8739 5.0459 62.1516 5.26455C62.2862 5.37521 62.4221 5.49089 62.5482 5.61036C62.6717 5.48461 62.8101 5.37521 62.946 5.26455C63.2232 5.04591 63.5198 4.85394 63.8318 4.69113C63.9887 4.61065 64.1506 4.53521 64.3162 4.46856C65.6451 3.9304 67.1261 3.9304 68.4551 4.46856C69.4988 4.89012 70.3942 5.62073 71.0254 6.56589C71.6567 7.51104 71.9948 8.62725 71.996 9.77012Z" fill="#283642"/>
</g>
<defs>
<clipPath id="clip0_1039_1027">
<rect width="181" height="21" fill="white" transform="translate(0 0.5)"/>
</clipPath>
</defs>
</svg>
