<svg width="71" height="70" viewBox="0 0 71 70" fill="none" xmlns="http://www.w3.org/2000/svg">
<path d="M15.4567 41.5795C15.055 40.7755 14.2468 40.2754 13.3467 40.2754C12.4467 40.2754 11.6385 40.7756 11.2368 41.5795L5.55859 52.9353H21.1351L15.4567 41.5795Z" fill="white"/>
<path d="M28.1164 18.1202C28.1164 16.3752 29.5363 14.9552 31.2813 14.9552H53.4362V12.8452H17.5664V29.7251H28.1164V18.1202Z" fill="white"/>
<path d="M30.2263 7.57001V4.40503H20.7314C18.9864 4.40503 17.5664 5.82499 17.5664 7.57001V10.735H31.3091C30.6393 9.85097 30.2268 8.7621 30.2268 7.57001H30.2263Z" fill="white"/>
<path d="M24.9484 44.4949C24.0159 44.4949 23.1371 44.9918 22.6571 45.7915L21.1641 48.281L23.4902 52.9348H31.5252L27.2397 45.7915C26.7598 44.9918 25.8809 44.4949 24.9484 44.4949Z" fill="white"/>
<path d="M13.3462 38.1648C13.3462 38.1649 13.3463 38.1651 13.3464 38.1651C15.0504 38.1651 16.5819 39.1113 17.3434 40.6358L19.3496 44.649C19.6519 45.2535 20.5024 45.2863 20.8503 44.7069C21.7113 43.2741 23.282 42.3849 24.9512 42.3849C25.3726 42.3849 25.787 42.4425 26.185 42.5514C27.0155 42.7786 28.1161 42.243 28.1161 41.3821V32.835C28.1161 32.2827 27.6684 31.835 27.1161 31.835H5.90625C5.35396 31.835 4.90625 32.2827 4.90625 32.835V45.2845C4.90625 46.3397 6.32873 46.6755 6.80066 45.7317L9.34905 40.6353C10.1106 39.1108 11.6422 38.1647 13.346 38.1646C13.3461 38.1646 13.3462 38.1647 13.3462 38.1648ZM22.8411 33.9451C24.5862 33.9451 26.0061 35.365 26.0061 37.1101C26.0061 38.8551 24.5862 40.275 22.8411 40.275C21.0961 40.275 19.6762 38.8551 19.6762 37.1101C19.6762 35.365 21.0961 33.9451 22.8411 33.9451Z" fill="white"/>
<path d="M17.5664 55.0449V62.4299C17.5664 64.1749 18.9864 65.5949 20.7314 65.5949H50.2713C52.0163 65.5949 53.4362 64.1749 53.4362 62.4299V55.0449H17.5664ZM24.9514 61.3749C24.9514 61.957 24.4785 62.4299 23.8964 62.4299H21.7864C21.2043 62.4299 20.7314 61.957 20.7314 61.3749V59.2649C20.7314 58.6828 21.2043 58.2099 21.7864 58.2099H23.8964C24.4785 58.2099 24.9514 58.6828 24.9514 59.2649V61.3749ZM46.0513 59.2649C46.0513 58.6828 46.5241 58.2099 47.1063 58.2099H49.2163C49.7984 58.2099 50.2713 58.6828 50.2713 59.2649V61.3749C50.2713 61.957 49.7984 62.4299 49.2163 62.4299H47.1063C46.5241 62.4299 46.0513 61.957 46.0513 61.3749V59.2649ZM39.7213 59.2649V61.3749C39.7213 61.957 39.2484 62.4299 38.6663 62.4299H32.3363C31.7542 62.4299 31.2813 61.957 31.2813 61.3749V59.2649C31.2813 58.6828 31.7542 58.2099 32.3363 58.2099H38.6663C39.2484 58.2099 39.7213 58.6828 39.7213 59.2649Z" fill="white"/>
<path d="M34.4453 48.7148H53.4352V52.9348H34.4453V48.7148Z" fill="white"/>
<path d="M65.0414 17.0652H31.2816C30.6994 17.0652 30.2266 17.5381 30.2266 18.1202V23.3952H66.0964V18.1202C66.0964 17.5381 65.6235 17.0652 65.0414 17.0652ZM34.4465 21.2852H32.3366V19.1752H34.4465V21.2852ZM38.6665 21.2852H36.5565V19.1752H38.6665V21.2852ZM42.8865 21.2852H40.7765V19.1752H42.8865V21.2852Z" fill="white"/>
<path d="M30.2266 45.55C30.2266 46.1322 30.6994 46.605 31.2816 46.605H65.0414C65.6235 46.605 66.0964 46.1322 66.0964 45.55V25.5051H30.2266V45.55ZM62.9314 43.44H50.2715V37.1101H62.9314V43.44ZM49.2165 27.6151H63.9864V29.7251H49.2165V27.6151ZM49.2165 31.8351H63.9864V33.9451H49.2165V31.8351ZM47.1065 40.2751H36.5565V38.1651H47.1065V40.2751ZM33.3915 28.6701H46.0515V35.0001H33.3915V28.6701ZM32.3366 38.1651H34.4465V40.2751H32.3366V38.1651ZM32.3366 42.385H47.1065V44.495H32.3366V42.385Z" fill="white"/>
<path d="M53.4337 7.57001C53.4337 5.82499 52.0137 4.40503 50.2687 4.40503H40.7737V7.57001C40.7737 8.76206 40.3611 9.85097 39.6914 10.735H53.4341L53.4337 7.57001ZM50.2687 8.62501C49.6865 8.62501 49.2137 8.15214 49.2137 7.57001C49.2137 6.98789 49.6865 6.51502 50.2687 6.51502C50.8508 6.51502 51.3237 6.98789 51.3237 7.57001C51.3237 8.15214 50.8508 8.62501 50.2687 8.62501Z" fill="white"/>
<path d="M35.5009 10.735C37.2459 10.735 38.6659 9.31504 38.6659 7.57001V4.40503H32.3359V7.57001C32.3359 9.31504 33.7559 10.735 35.5009 10.735ZM35.5009 6.51502C36.0831 6.51502 36.5559 6.98789 36.5559 7.57001C36.5559 8.15214 36.0831 8.62501 35.5009 8.62501C34.9188 8.62501 34.4459 8.15214 34.4459 7.57001C34.4459 6.98789 34.9188 6.51502 35.5009 6.51502Z" fill="white"/>
</svg>
