<svg width="50" height="50" viewBox="0 0 50 50" fill="none" xmlns="http://www.w3.org/2000/svg">
<path d="M5.8117 18.6015C6.74487 19.5347 8.01115 20.0593 9.33115 20.0593C10.6511 20.0593 11.9168 19.5347 12.8506 18.6015L22.4171 9.03501C23.2038 8.24833 23.5109 7.10251 23.2228 6.02834C22.9352 4.95412 22.0959 4.11487 21.0217 3.82723C19.9475 3.53915 18.8011 3.84622 18.015 4.6329L9.33501 13.3205L5.31376 9.29929C4.52762 8.51315 3.38126 8.20608 2.30709 8.49362C1.23287 8.7817 0.394175 9.62047 0.10598 10.6947C-0.181561 11.769 0.12551 12.9153 0.911647 13.7014L5.8117 18.6015Z" fill="#907F53"/>
<path d="M46.669 14.6116H27.2245C26.1129 14.6116 25.0859 15.2046 24.5304 16.167C23.9743 17.1294 23.9743 18.3155 24.5304 19.2778C25.0859 20.2408 26.113 20.8338 27.2245 20.8338H46.669C47.7806 20.8338 48.8076 20.2408 49.3631 19.2778C49.9187 18.3154 49.9187 17.1293 49.3631 16.167C48.8076 15.2046 47.7805 14.6116 46.669 14.6116Z" fill="#907F53"/>
<path d="M46.6694 1.38892H32.6694C31.5578 1.38892 30.5308 1.9819 29.9753 2.94433C29.4197 3.90679 29.4197 5.09281 29.9753 6.05517C30.5308 7.01763 31.5579 7.61058 32.6694 7.61058H46.6694C47.7811 7.61058 48.808 7.0176 49.3636 6.05517C49.9192 5.09271 49.9192 3.90669 49.3636 2.94433C48.808 1.98187 47.781 1.38892 46.6694 1.38892Z" fill="#907F53"/>
<path d="M21.7795 27.8342H3.11279C2.00113 27.8342 0.974175 28.4272 0.41862 29.3896C-0.136936 30.3521 -0.136936 31.5381 0.41862 32.501C0.974175 33.4635 2.00126 34.0564 3.11279 34.0564H21.7795C22.8906 34.0564 23.9176 33.4635 24.4736 32.501C25.0292 31.538 25.0292 30.352 24.4736 29.3896C23.9175 28.4272 22.8906 27.8342 21.7795 27.8342Z" fill="#907F53"/>
<path d="M21.7795 41.0549H3.11279C2.00113 41.0549 0.974175 41.6479 0.41862 42.6103C-0.136936 43.5733 -0.136936 44.7594 0.41862 45.7217C0.974175 46.6842 2.00126 47.2772 3.11279 47.2772H21.7795C22.8906 47.2772 23.9176 46.6842 24.4736 45.7217C25.0292 44.7593 25.0292 43.5733 24.4736 42.6103C23.9175 41.6479 22.8906 41.0549 21.7795 41.0549Z" fill="#907F53"/>
<path d="M49.289 29.2485C48.7779 28.4596 47.9375 27.9437 47.0027 27.8454C46.0674 27.7472 45.1386 28.0771 44.4745 28.7428L40.4456 32.7716L36.4167 28.7428C35.7646 28.0895 34.8559 27.7597 33.9369 27.8421C33.0173 27.9252 32.1817 28.4118 31.6566 29.1708C31.2465 29.805 31.0707 30.5625 31.1602 31.3127C31.2497 32.0625 31.5985 32.7575 32.1465 33.2773L36.0354 37.1662L32.0689 41.1328V41.1333C31.5497 41.6384 31.2198 42.3063 31.1352 43.0257C31.05 43.7451 31.2149 44.472 31.6023 45.084C32.1134 45.8734 32.9538 46.3888 33.8885 46.487C34.8239 46.5852 35.7527 46.2554 36.4167 45.5897L40.4456 41.5608L44.4745 45.5897C45.1266 46.2429 46.0354 46.5728 46.9544 46.4903C47.874 46.4078 48.7095 45.9212 49.2347 45.1622C49.6459 44.5285 49.8228 43.7716 49.7349 43.0213C49.647 42.2716 49.2992 41.5761 48.7524 41.0552L44.8635 37.1664L48.83 33.1998C49.3481 32.6936 49.6764 32.0247 49.7599 31.3052C49.8435 30.5864 49.6769 29.86 49.289 29.2484L49.289 29.2485Z" fill="#907F53"/>
</svg>
