<svg width="59" height="45" viewBox="0 0 59 45" fill="none" xmlns="http://www.w3.org/2000/svg">
<path d="M3.25037 44.4166H55.7504C56.2819 44.4149 56.8029 44.2683 57.2573 43.9926C57.7118 43.7168 58.0824 43.3224 58.3293 42.8517C58.5762 42.381 58.69 41.8518 58.6586 41.3212C58.6271 40.7906 58.4516 40.2786 58.1508 39.8404L31.9008 1.92369C30.8129 0.351608 28.1937 0.351608 27.1029 1.92369L0.852871 39.8404C0.549027 40.2777 0.370846 40.7899 0.337686 41.3214C0.304527 41.8529 0.417658 42.3833 0.664787 42.855C0.911916 43.3268 1.28359 43.7217 1.73943 43.997C2.19527 44.2723 2.71785 44.4174 3.25037 44.4166Z" fill="#283642"/>
</svg>
