<svg width="50" height="50" viewBox="0 0 50 50" fill="none" xmlns="http://www.w3.org/2000/svg">
<g clip-path="url(#clip0_548_15354)">
<path d="M43.9832 19.3985V43.9397C43.9815 45.4492 43.3812 46.897 42.3135 47.9641C41.2463 49.0317 39.7985 49.6321 38.2891 49.6338H6.02227C4.51272 49.6321 3.065 49.0318 1.99787 47.9641C0.930208 46.8969 0.32986 45.4491 0.328125 43.9397V11.6729C0.32982 10.1633 0.930164 8.71561 1.99787 7.64847C3.06509 6.58082 4.51283 5.98047 6.02227 5.97873H30.5635L19.7302 16.812H19.7306C18.9341 17.6056 18.3926 18.6181 18.174 19.7209L16.8318 26.4272C16.4967 28.1003 16.9292 29.8357 18.0109 31.1554C19.0925 32.4752 20.7084 33.2408 22.4149 33.2411C22.7898 33.2415 23.1639 33.2042 23.5317 33.1301L30.2397 31.7888C31.3434 31.5697 32.3569 31.0274 33.1508 30.231L43.9832 19.3985ZM22.7869 29.4081L29.497 28.0664H29.4966C29.8639 27.9927 30.2011 27.8122 30.4659 27.5474L47.9139 10.1005C48.982 9.03286 49.5823 7.58479 49.5823 6.07437C49.5823 4.56396 48.9828 3.11591 47.9147 2.0478C46.8306 1.01192 45.3884 0.433594 43.8886 0.433594C42.3888 0.433594 40.9466 1.0119 39.862 2.0478L22.4141 19.4957C22.1493 19.7605 21.9688 20.0978 21.8951 20.4651L20.5533 27.1752V27.1748C20.4284 27.7976 20.6228 28.4411 21.0715 28.8902C21.5206 29.3388 22.1641 29.5333 22.7869 29.4083L22.7869 29.4081Z" fill="#907F53"/>
</g>
<defs>
<clipPath id="clip0_548_15354">
<rect width="50" height="50" fill="white"/>
</clipPath>
</defs>
</svg>
